<?xml version="1.0" encoding="utf-8" standalone="no"?>
<!DOCTYPE svg PUBLIC "-//W3C//DTD SVG 1.1//EN"
  "http://www.w3.org/Graphics/SVG/1.1/DTD/svg11.dtd">
<!-- Created with matplotlib (https://matplotlib.org/) -->
<svg height="452pt" version="1.1" viewBox="0 0 564 452" width="564pt" xmlns="http://www.w3.org/2000/svg" xmlns:xlink="http://www.w3.org/1999/xlink">
 <defs>
  <style type="text/css">
*{stroke-linecap:butt;stroke-linejoin:round;}
  </style>
 </defs>
 <g id="figure_1">
  <g id="patch_1">
   <path d="M 0 452 
L 564 452 
L 564 0 
L 0 0 
z
" style="fill:#ffffff;"/>
  </g>
  <g id="axes_1">
   <g id="patch_2">
    <path d="M 52.724375 404.365156 
L 551.04 404.365156 
L 551.04 12.96 
L 52.724375 12.96 
z
" style="fill:#eaeaf2;"/>
   </g>
   <g id="matplotlib.axis_1">
    <g id="xtick_1">
     <g id="line2d_1">
      <path clip-path="url(#p03c9340cc8)" d="M 75.309556 404.365156 
L 75.309556 12.96 
" style="fill:none;stroke:#ffffff;stroke-linecap:round;"/>
     </g>
     <g id="text_1">
      <!-- 0 -->
      <defs>
       <path d="M 4.15625 35.296875 
Q 4.15625 48 6.765625 55.734375 
Q 9.375 63.484375 14.515625 67.671875 
Q 19.671875 71.875 27.484375 71.875 
Q 33.25 71.875 37.59375 69.546875 
Q 41.9375 67.234375 44.765625 62.859375 
Q 47.609375 58.5 49.21875 52.21875 
Q 50.828125 45.953125 50.828125 35.296875 
Q 50.828125 22.703125 48.234375 14.96875 
Q 45.65625 7.234375 40.5 3 
Q 35.359375 -1.21875 27.484375 -1.21875 
Q 17.140625 -1.21875 11.234375 6.203125 
Q 4.15625 15.140625 4.15625 35.296875 
z
M 13.1875 35.296875 
Q 13.1875 17.671875 17.3125 11.828125 
Q 21.4375 6 27.484375 6 
Q 33.546875 6 37.671875 11.859375 
Q 41.796875 17.71875 41.796875 35.296875 
Q 41.796875 52.984375 37.671875 58.78125 
Q 33.546875 64.59375 27.390625 64.59375 
Q 21.34375 64.59375 17.71875 59.46875 
Q 13.1875 52.9375 13.1875 35.296875 
z
" id="ArialMT-48"/>
      </defs>
      <g style="fill:#262626;" transform="translate(72.25104 421.73875)scale(0.11 -0.11)">
       <use xlink:href="#ArialMT-48"/>
      </g>
     </g>
    </g>
    <g id="xtick_2">
     <g id="line2d_2">
      <path clip-path="url(#p03c9340cc8)" d="M 147.095091 404.365156 
L 147.095091 12.96 
" style="fill:none;stroke:#ffffff;stroke-linecap:round;"/>
     </g>
     <g id="text_2">
      <!-- 2000 -->
      <defs>
       <path d="M 50.34375 8.453125 
L 50.34375 0 
L 3.03125 0 
Q 2.9375 3.171875 4.046875 6.109375 
Q 5.859375 10.9375 9.828125 15.625 
Q 13.8125 20.3125 21.34375 26.46875 
Q 33.015625 36.03125 37.109375 41.625 
Q 41.21875 47.21875 41.21875 52.203125 
Q 41.21875 57.421875 37.46875 61 
Q 33.734375 64.59375 27.734375 64.59375 
Q 21.390625 64.59375 17.578125 60.78125 
Q 13.765625 56.984375 13.71875 50.25 
L 4.6875 51.171875 
Q 5.609375 61.28125 11.65625 66.578125 
Q 17.71875 71.875 27.9375 71.875 
Q 38.234375 71.875 44.234375 66.15625 
Q 50.25 60.453125 50.25 52 
Q 50.25 47.703125 48.484375 43.546875 
Q 46.734375 39.40625 42.65625 34.8125 
Q 38.578125 30.21875 29.109375 22.21875 
Q 21.1875 15.578125 18.9375 13.203125 
Q 16.703125 10.84375 15.234375 8.453125 
z
" id="ArialMT-50"/>
      </defs>
      <g style="fill:#262626;" transform="translate(134.861028 421.73875)scale(0.11 -0.11)">
       <use xlink:href="#ArialMT-50"/>
       <use x="55.615234" xlink:href="#ArialMT-48"/>
       <use x="111.230469" xlink:href="#ArialMT-48"/>
       <use x="166.845703" xlink:href="#ArialMT-48"/>
      </g>
     </g>
    </g>
    <g id="xtick_3">
     <g id="line2d_3">
      <path clip-path="url(#p03c9340cc8)" d="M 218.880625 404.365156 
L 218.880625 12.96 
" style="fill:none;stroke:#ffffff;stroke-linecap:round;"/>
     </g>
     <g id="text_3">
      <!-- 4000 -->
      <defs>
       <path d="M 32.328125 0 
L 32.328125 17.140625 
L 1.265625 17.140625 
L 1.265625 25.203125 
L 33.9375 71.578125 
L 41.109375 71.578125 
L 41.109375 25.203125 
L 50.78125 25.203125 
L 50.78125 17.140625 
L 41.109375 17.140625 
L 41.109375 0 
z
M 32.328125 25.203125 
L 32.328125 57.46875 
L 9.90625 25.203125 
z
" id="ArialMT-52"/>
      </defs>
      <g style="fill:#262626;" transform="translate(206.646563 421.73875)scale(0.11 -0.11)">
       <use xlink:href="#ArialMT-52"/>
       <use x="55.615234" xlink:href="#ArialMT-48"/>
       <use x="111.230469" xlink:href="#ArialMT-48"/>
       <use x="166.845703" xlink:href="#ArialMT-48"/>
      </g>
     </g>
    </g>
    <g id="xtick_4">
     <g id="line2d_4">
      <path clip-path="url(#p03c9340cc8)" d="M 290.66616 404.365156 
L 290.66616 12.96 
" style="fill:none;stroke:#ffffff;stroke-linecap:round;"/>
     </g>
     <g id="text_4">
      <!-- 6000 -->
      <defs>
       <path d="M 49.75 54.046875 
L 41.015625 53.375 
Q 39.84375 58.546875 37.703125 60.890625 
Q 34.125 64.65625 28.90625 64.65625 
Q 24.703125 64.65625 21.53125 62.3125 
Q 17.390625 59.28125 14.984375 53.46875 
Q 12.59375 47.65625 12.5 36.921875 
Q 15.671875 41.75 20.265625 44.09375 
Q 24.859375 46.4375 29.890625 46.4375 
Q 38.671875 46.4375 44.84375 39.96875 
Q 51.03125 33.5 51.03125 23.25 
Q 51.03125 16.5 48.125 10.71875 
Q 45.21875 4.9375 40.140625 1.859375 
Q 35.0625 -1.21875 28.609375 -1.21875 
Q 17.625 -1.21875 10.6875 6.859375 
Q 3.765625 14.9375 3.765625 33.5 
Q 3.765625 54.25 11.421875 63.671875 
Q 18.109375 71.875 29.4375 71.875 
Q 37.890625 71.875 43.28125 67.140625 
Q 48.6875 62.40625 49.75 54.046875 
z
M 13.875 23.1875 
Q 13.875 18.65625 15.796875 14.5 
Q 17.71875 10.359375 21.1875 8.171875 
Q 24.65625 6 28.46875 6 
Q 34.03125 6 38.03125 10.484375 
Q 42.046875 14.984375 42.046875 22.703125 
Q 42.046875 30.125 38.078125 34.390625 
Q 34.125 38.671875 28.125 38.671875 
Q 22.171875 38.671875 18.015625 34.390625 
Q 13.875 30.125 13.875 23.1875 
z
" id="ArialMT-54"/>
      </defs>
      <g style="fill:#262626;" transform="translate(278.432098 421.73875)scale(0.11 -0.11)">
       <use xlink:href="#ArialMT-54"/>
       <use x="55.615234" xlink:href="#ArialMT-48"/>
       <use x="111.230469" xlink:href="#ArialMT-48"/>
       <use x="166.845703" xlink:href="#ArialMT-48"/>
      </g>
     </g>
    </g>
    <g id="xtick_5">
     <g id="line2d_5">
      <path clip-path="url(#p03c9340cc8)" d="M 362.451695 404.365156 
L 362.451695 12.96 
" style="fill:none;stroke:#ffffff;stroke-linecap:round;"/>
     </g>
     <g id="text_5">
      <!-- 8000 -->
      <defs>
       <path d="M 17.671875 38.8125 
Q 12.203125 40.828125 9.5625 44.53125 
Q 6.9375 48.25 6.9375 53.421875 
Q 6.9375 61.234375 12.546875 66.546875 
Q 18.171875 71.875 27.484375 71.875 
Q 36.859375 71.875 42.578125 66.421875 
Q 48.296875 60.984375 48.296875 53.171875 
Q 48.296875 48.1875 45.671875 44.5 
Q 43.0625 40.828125 37.75 38.8125 
Q 44.34375 36.671875 47.78125 31.875 
Q 51.21875 27.09375 51.21875 20.453125 
Q 51.21875 11.28125 44.71875 5.03125 
Q 38.234375 -1.21875 27.640625 -1.21875 
Q 17.046875 -1.21875 10.546875 5.046875 
Q 4.046875 11.328125 4.046875 20.703125 
Q 4.046875 27.6875 7.59375 32.390625 
Q 11.140625 37.109375 17.671875 38.8125 
z
M 15.921875 53.71875 
Q 15.921875 48.640625 19.1875 45.40625 
Q 22.46875 42.1875 27.6875 42.1875 
Q 32.765625 42.1875 36.015625 45.375 
Q 39.265625 48.578125 39.265625 53.21875 
Q 39.265625 58.0625 35.90625 61.359375 
Q 32.5625 64.65625 27.59375 64.65625 
Q 22.5625 64.65625 19.234375 61.421875 
Q 15.921875 58.203125 15.921875 53.71875 
z
M 13.09375 20.65625 
Q 13.09375 16.890625 14.875 13.375 
Q 16.65625 9.859375 20.171875 7.921875 
Q 23.6875 6 27.734375 6 
Q 34.03125 6 38.125 10.046875 
Q 42.234375 14.109375 42.234375 20.359375 
Q 42.234375 26.703125 38.015625 30.859375 
Q 33.796875 35.015625 27.4375 35.015625 
Q 21.234375 35.015625 17.15625 30.90625 
Q 13.09375 26.8125 13.09375 20.65625 
z
" id="ArialMT-56"/>
      </defs>
      <g style="fill:#262626;" transform="translate(350.217632 421.73875)scale(0.11 -0.11)">
       <use xlink:href="#ArialMT-56"/>
       <use x="55.615234" xlink:href="#ArialMT-48"/>
       <use x="111.230469" xlink:href="#ArialMT-48"/>
       <use x="166.845703" xlink:href="#ArialMT-48"/>
      </g>
     </g>
    </g>
    <g id="xtick_6">
     <g id="line2d_6">
      <path clip-path="url(#p03c9340cc8)" d="M 434.23723 404.365156 
L 434.23723 12.96 
" style="fill:none;stroke:#ffffff;stroke-linecap:round;"/>
     </g>
     <g id="text_6">
      <!-- 10000 -->
      <defs>
       <path d="M 37.25 0 
L 28.46875 0 
L 28.46875 56 
Q 25.296875 52.984375 20.140625 49.953125 
Q 14.984375 46.921875 10.890625 45.40625 
L 10.890625 53.90625 
Q 18.265625 57.375 23.78125 62.296875 
Q 29.296875 67.234375 31.59375 71.875 
L 37.25 71.875 
z
" id="ArialMT-49"/>
      </defs>
      <g style="fill:#262626;" transform="translate(418.944652 421.73875)scale(0.11 -0.11)">
       <use xlink:href="#ArialMT-49"/>
       <use x="55.615234" xlink:href="#ArialMT-48"/>
       <use x="111.230469" xlink:href="#ArialMT-48"/>
       <use x="166.845703" xlink:href="#ArialMT-48"/>
       <use x="222.460938" xlink:href="#ArialMT-48"/>
      </g>
     </g>
    </g>
    <g id="xtick_7">
     <g id="line2d_7">
      <path clip-path="url(#p03c9340cc8)" d="M 506.022764 404.365156 
L 506.022764 12.96 
" style="fill:none;stroke:#ffffff;stroke-linecap:round;"/>
     </g>
     <g id="text_7">
      <!-- 12000 -->
      <g style="fill:#262626;" transform="translate(490.730186 421.73875)scale(0.11 -0.11)">
       <use xlink:href="#ArialMT-49"/>
       <use x="55.615234" xlink:href="#ArialMT-50"/>
       <use x="111.230469" xlink:href="#ArialMT-48"/>
       <use x="166.845703" xlink:href="#ArialMT-48"/>
       <use x="222.460938" xlink:href="#ArialMT-48"/>
      </g>
     </g>
    </g>
    <g id="text_8">
     <!-- waiting games -->
     <defs>
      <path d="M 16.15625 0 
L 0.296875 51.859375 
L 9.375 51.859375 
L 17.625 21.921875 
L 20.703125 10.796875 
Q 20.90625 11.625 23.390625 21.484375 
L 31.640625 51.859375 
L 40.671875 51.859375 
L 48.4375 21.78125 
L 51.03125 11.859375 
L 54 21.875 
L 62.890625 51.859375 
L 71.4375 51.859375 
L 55.21875 0 
L 46.09375 0 
L 37.84375 31.0625 
L 35.84375 39.890625 
L 25.34375 0 
z
" id="ArialMT-119"/>
      <path d="M 40.4375 6.390625 
Q 35.546875 2.25 31.03125 0.53125 
Q 26.515625 -1.171875 21.34375 -1.171875 
Q 12.796875 -1.171875 8.203125 3 
Q 3.609375 7.171875 3.609375 13.671875 
Q 3.609375 17.484375 5.34375 20.625 
Q 7.078125 23.78125 9.890625 25.6875 
Q 12.703125 27.59375 16.21875 28.5625 
Q 18.796875 29.25 24.03125 29.890625 
Q 34.671875 31.15625 39.703125 32.90625 
Q 39.75 34.71875 39.75 35.203125 
Q 39.75 40.578125 37.25 42.78125 
Q 33.890625 45.75 27.25 45.75 
Q 21.046875 45.75 18.09375 43.578125 
Q 15.140625 41.40625 13.71875 35.890625 
L 5.125 37.0625 
Q 6.296875 42.578125 8.984375 45.96875 
Q 11.671875 49.359375 16.75 51.1875 
Q 21.828125 53.03125 28.515625 53.03125 
Q 35.15625 53.03125 39.296875 51.46875 
Q 43.453125 49.90625 45.40625 47.53125 
Q 47.359375 45.171875 48.140625 41.546875 
Q 48.578125 39.3125 48.578125 33.453125 
L 48.578125 21.734375 
Q 48.578125 9.46875 49.140625 6.21875 
Q 49.703125 2.984375 51.375 0 
L 42.1875 0 
Q 40.828125 2.734375 40.4375 6.390625 
z
M 39.703125 26.03125 
Q 34.90625 24.078125 25.34375 22.703125 
Q 19.921875 21.921875 17.671875 20.9375 
Q 15.4375 19.96875 14.203125 18.09375 
Q 12.984375 16.21875 12.984375 13.921875 
Q 12.984375 10.40625 15.640625 8.0625 
Q 18.3125 5.71875 23.4375 5.71875 
Q 28.515625 5.71875 32.46875 7.9375 
Q 36.421875 10.15625 38.28125 14.015625 
Q 39.703125 17 39.703125 22.796875 
z
" id="ArialMT-97"/>
      <path d="M 6.640625 61.46875 
L 6.640625 71.578125 
L 15.4375 71.578125 
L 15.4375 61.46875 
z
M 6.640625 0 
L 6.640625 51.859375 
L 15.4375 51.859375 
L 15.4375 0 
z
" id="ArialMT-105"/>
      <path d="M 25.78125 7.859375 
L 27.046875 0.09375 
Q 23.34375 -0.6875 20.40625 -0.6875 
Q 15.625 -0.6875 12.984375 0.828125 
Q 10.359375 2.34375 9.28125 4.8125 
Q 8.203125 7.28125 8.203125 15.1875 
L 8.203125 45.015625 
L 1.765625 45.015625 
L 1.765625 51.859375 
L 8.203125 51.859375 
L 8.203125 64.703125 
L 16.9375 69.96875 
L 16.9375 51.859375 
L 25.78125 51.859375 
L 25.78125 45.015625 
L 16.9375 45.015625 
L 16.9375 14.703125 
Q 16.9375 10.9375 17.40625 9.859375 
Q 17.875 8.796875 18.921875 8.15625 
Q 19.96875 7.515625 21.921875 7.515625 
Q 23.390625 7.515625 25.78125 7.859375 
z
" id="ArialMT-116"/>
      <path d="M 6.59375 0 
L 6.59375 51.859375 
L 14.5 51.859375 
L 14.5 44.484375 
Q 20.21875 53.03125 31 53.03125 
Q 35.6875 53.03125 39.625 51.34375 
Q 43.5625 49.65625 45.515625 46.921875 
Q 47.46875 44.1875 48.25 40.4375 
Q 48.734375 37.984375 48.734375 31.890625 
L 48.734375 0 
L 39.9375 0 
L 39.9375 31.546875 
Q 39.9375 36.921875 38.90625 39.578125 
Q 37.890625 42.234375 35.28125 43.8125 
Q 32.671875 45.40625 29.15625 45.40625 
Q 23.53125 45.40625 19.453125 41.84375 
Q 15.375 38.28125 15.375 28.328125 
L 15.375 0 
z
" id="ArialMT-110"/>
      <path d="M 4.984375 -4.296875 
L 13.53125 -5.5625 
Q 14.0625 -9.515625 16.5 -11.328125 
Q 19.78125 -13.765625 25.4375 -13.765625 
Q 31.546875 -13.765625 34.859375 -11.328125 
Q 38.1875 -8.890625 39.359375 -4.5 
Q 40.046875 -1.8125 39.984375 6.78125 
Q 34.234375 0 25.640625 0 
Q 14.9375 0 9.078125 7.71875 
Q 3.21875 15.4375 3.21875 26.21875 
Q 3.21875 33.640625 5.90625 39.90625 
Q 8.59375 46.1875 13.6875 49.609375 
Q 18.796875 53.03125 25.6875 53.03125 
Q 34.859375 53.03125 40.828125 45.609375 
L 40.828125 51.859375 
L 48.921875 51.859375 
L 48.921875 7.03125 
Q 48.921875 -5.078125 46.453125 -10.125 
Q 44 -15.1875 38.640625 -18.109375 
Q 33.296875 -21.046875 25.484375 -21.046875 
Q 16.21875 -21.046875 10.5 -16.875 
Q 4.78125 -12.703125 4.984375 -4.296875 
z
M 12.25 26.859375 
Q 12.25 16.65625 16.296875 11.96875 
Q 20.359375 7.28125 26.46875 7.28125 
Q 32.515625 7.28125 36.609375 11.9375 
Q 40.71875 16.609375 40.71875 26.5625 
Q 40.71875 36.078125 36.5 40.90625 
Q 32.28125 45.75 26.3125 45.75 
Q 20.453125 45.75 16.34375 40.984375 
Q 12.25 36.234375 12.25 26.859375 
z
" id="ArialMT-103"/>
      <path id="ArialMT-32"/>
      <path d="M 6.59375 0 
L 6.59375 51.859375 
L 14.453125 51.859375 
L 14.453125 44.578125 
Q 16.890625 48.390625 20.9375 50.703125 
Q 25 53.03125 30.171875 53.03125 
Q 35.9375 53.03125 39.625 50.640625 
Q 43.3125 48.25 44.828125 43.953125 
Q 50.984375 53.03125 60.84375 53.03125 
Q 68.5625 53.03125 72.703125 48.75 
Q 76.859375 44.484375 76.859375 35.59375 
L 76.859375 0 
L 68.109375 0 
L 68.109375 32.671875 
Q 68.109375 37.9375 67.25 40.25 
Q 66.40625 42.578125 64.15625 43.984375 
Q 61.921875 45.40625 58.890625 45.40625 
Q 53.421875 45.40625 49.796875 41.765625 
Q 46.1875 38.140625 46.1875 30.125 
L 46.1875 0 
L 37.40625 0 
L 37.40625 33.6875 
Q 37.40625 39.546875 35.25 42.46875 
Q 33.109375 45.40625 28.21875 45.40625 
Q 24.515625 45.40625 21.359375 43.453125 
Q 18.21875 41.5 16.796875 37.734375 
Q 15.375 33.984375 15.375 26.90625 
L 15.375 0 
z
" id="ArialMT-109"/>
      <path d="M 42.09375 16.703125 
L 51.171875 15.578125 
Q 49.03125 7.625 43.21875 3.21875 
Q 37.40625 -1.171875 28.375 -1.171875 
Q 17 -1.171875 10.328125 5.828125 
Q 3.65625 12.84375 3.65625 25.484375 
Q 3.65625 38.578125 10.390625 45.796875 
Q 17.140625 53.03125 27.875 53.03125 
Q 38.28125 53.03125 44.875 45.953125 
Q 51.46875 38.875 51.46875 26.03125 
Q 51.46875 25.25 51.421875 23.6875 
L 12.75 23.6875 
Q 13.234375 15.140625 17.578125 10.59375 
Q 21.921875 6.0625 28.421875 6.0625 
Q 33.25 6.0625 36.671875 8.59375 
Q 40.09375 11.140625 42.09375 16.703125 
z
M 13.234375 30.90625 
L 42.1875 30.90625 
Q 41.609375 37.453125 38.875 40.71875 
Q 34.671875 45.796875 27.984375 45.796875 
Q 21.921875 45.796875 17.796875 41.75 
Q 13.671875 37.703125 13.234375 30.90625 
z
" id="ArialMT-101"/>
      <path d="M 3.078125 15.484375 
L 11.765625 16.84375 
Q 12.5 11.625 15.84375 8.84375 
Q 19.1875 6.0625 25.203125 6.0625 
Q 31.25 6.0625 34.171875 8.515625 
Q 37.109375 10.984375 37.109375 14.3125 
Q 37.109375 17.28125 34.515625 19 
Q 32.71875 20.171875 25.53125 21.96875 
Q 15.875 24.421875 12.140625 26.203125 
Q 8.40625 27.984375 6.46875 31.125 
Q 4.546875 34.28125 4.546875 38.09375 
Q 4.546875 41.546875 6.125 44.5 
Q 7.71875 47.46875 10.453125 49.421875 
Q 12.5 50.921875 16.03125 51.96875 
Q 19.578125 53.03125 23.640625 53.03125 
Q 29.734375 53.03125 34.34375 51.265625 
Q 38.96875 49.515625 41.15625 46.5 
Q 43.359375 43.5 44.1875 38.484375 
L 35.59375 37.3125 
Q 35.015625 41.3125 32.203125 43.546875 
Q 29.390625 45.796875 24.265625 45.796875 
Q 18.21875 45.796875 15.625 43.796875 
Q 13.03125 41.796875 13.03125 39.109375 
Q 13.03125 37.40625 14.109375 36.03125 
Q 15.1875 34.625 17.484375 33.6875 
Q 18.796875 33.203125 25.25 31.453125 
Q 34.578125 28.953125 38.25 27.359375 
Q 41.9375 25.78125 44.03125 22.75 
Q 46.140625 19.734375 46.140625 15.234375 
Q 46.140625 10.84375 43.578125 6.953125 
Q 41.015625 3.078125 36.171875 0.953125 
Q 31.34375 -1.171875 25.25 -1.171875 
Q 15.140625 -1.171875 9.84375 3.03125 
Q 4.546875 7.234375 3.078125 15.484375 
z
" id="ArialMT-115"/>
     </defs>
     <g style="fill:#262626;" transform="translate(263.531875 436.514375)scale(0.12 -0.12)">
      <use xlink:href="#ArialMT-119"/>
      <use x="72.216797" xlink:href="#ArialMT-97"/>
      <use x="127.832031" xlink:href="#ArialMT-105"/>
      <use x="150.048828" xlink:href="#ArialMT-116"/>
      <use x="177.832031" xlink:href="#ArialMT-105"/>
      <use x="200.048828" xlink:href="#ArialMT-110"/>
      <use x="255.664062" xlink:href="#ArialMT-103"/>
      <use x="311.279297" xlink:href="#ArialMT-32"/>
      <use x="339.0625" xlink:href="#ArialMT-103"/>
      <use x="394.677734" xlink:href="#ArialMT-97"/>
      <use x="450.292969" xlink:href="#ArialMT-109"/>
      <use x="533.59375" xlink:href="#ArialMT-101"/>
      <use x="589.208984" xlink:href="#ArialMT-115"/>
     </g>
    </g>
   </g>
   <g id="matplotlib.axis_2">
    <g id="ytick_1">
     <g id="line2d_8">
      <path clip-path="url(#p03c9340cc8)" d="M 52.724375 404.365156 
L 551.04 404.365156 
" style="fill:none;stroke:#ffffff;stroke-linecap:round;"/>
     </g>
     <g id="text_9">
      <!-- 0.0 -->
      <defs>
       <path d="M 9.078125 0 
L 9.078125 10.015625 
L 19.09375 10.015625 
L 19.09375 0 
z
" id="ArialMT-46"/>
      </defs>
      <g style="fill:#262626;" transform="translate(27.934375 408.301953)scale(0.11 -0.11)">
       <use xlink:href="#ArialMT-48"/>
       <use x="55.615234" xlink:href="#ArialMT-46"/>
       <use x="83.398438" xlink:href="#ArialMT-48"/>
      </g>
     </g>
    </g>
    <g id="ytick_2">
     <g id="line2d_9">
      <path clip-path="url(#p03c9340cc8)" d="M 52.724375 329.811793 
L 551.04 329.811793 
" style="fill:none;stroke:#ffffff;stroke-linecap:round;"/>
     </g>
     <g id="text_10">
      <!-- 0.2 -->
      <g style="fill:#262626;" transform="translate(27.934375 333.74859)scale(0.11 -0.11)">
       <use xlink:href="#ArialMT-48"/>
       <use x="55.615234" xlink:href="#ArialMT-46"/>
       <use x="83.398438" xlink:href="#ArialMT-50"/>
      </g>
     </g>
    </g>
    <g id="ytick_3">
     <g id="line2d_10">
      <path clip-path="url(#p03c9340cc8)" d="M 52.724375 255.25843 
L 551.04 255.25843 
" style="fill:none;stroke:#ffffff;stroke-linecap:round;"/>
     </g>
     <g id="text_11">
      <!-- 0.4 -->
      <g style="fill:#262626;" transform="translate(27.934375 259.195227)scale(0.11 -0.11)">
       <use xlink:href="#ArialMT-48"/>
       <use x="55.615234" xlink:href="#ArialMT-46"/>
       <use x="83.398438" xlink:href="#ArialMT-52"/>
      </g>
     </g>
    </g>
    <g id="ytick_4">
     <g id="line2d_11">
      <path clip-path="url(#p03c9340cc8)" d="M 52.724375 180.705067 
L 551.04 180.705067 
" style="fill:none;stroke:#ffffff;stroke-linecap:round;"/>
     </g>
     <g id="text_12">
      <!-- 0.6 -->
      <g style="fill:#262626;" transform="translate(27.934375 184.641864)scale(0.11 -0.11)">
       <use xlink:href="#ArialMT-48"/>
       <use x="55.615234" xlink:href="#ArialMT-46"/>
       <use x="83.398438" xlink:href="#ArialMT-54"/>
      </g>
     </g>
    </g>
    <g id="ytick_5">
     <g id="line2d_12">
      <path clip-path="url(#p03c9340cc8)" d="M 52.724375 106.151704 
L 551.04 106.151704 
" style="fill:none;stroke:#ffffff;stroke-linecap:round;"/>
     </g>
     <g id="text_13">
      <!-- 0.8 -->
      <g style="fill:#262626;" transform="translate(27.934375 110.088501)scale(0.11 -0.11)">
       <use xlink:href="#ArialMT-48"/>
       <use x="55.615234" xlink:href="#ArialMT-46"/>
       <use x="83.398438" xlink:href="#ArialMT-56"/>
      </g>
     </g>
    </g>
    <g id="ytick_6">
     <g id="line2d_13">
      <path clip-path="url(#p03c9340cc8)" d="M 52.724375 31.598341 
L 551.04 31.598341 
" style="fill:none;stroke:#ffffff;stroke-linecap:round;"/>
     </g>
     <g id="text_14">
      <!-- 1.0 -->
      <g style="fill:#262626;" transform="translate(27.934375 35.535138)scale(0.11 -0.11)">
       <use xlink:href="#ArialMT-49"/>
       <use x="55.615234" xlink:href="#ArialMT-46"/>
       <use x="83.398438" xlink:href="#ArialMT-48"/>
      </g>
     </g>
    </g>
    <g id="text_15">
     <!-- CDF -->
     <defs>
      <path d="M 58.796875 25.09375 
L 68.265625 22.703125 
Q 65.28125 11.03125 57.546875 4.90625 
Q 49.8125 -1.21875 38.625 -1.21875 
Q 27.046875 -1.21875 19.796875 3.484375 
Q 12.546875 8.203125 8.765625 17.140625 
Q 4.984375 26.078125 4.984375 36.328125 
Q 4.984375 47.515625 9.25 55.828125 
Q 13.53125 64.15625 21.40625 68.46875 
Q 29.296875 72.796875 38.765625 72.796875 
Q 49.515625 72.796875 56.828125 67.328125 
Q 64.15625 61.859375 67.046875 51.953125 
L 57.71875 49.75 
Q 55.21875 57.5625 50.484375 61.125 
Q 45.75 64.703125 38.578125 64.703125 
Q 30.328125 64.703125 24.78125 60.734375 
Q 19.234375 56.78125 16.984375 50.109375 
Q 14.75 43.453125 14.75 36.375 
Q 14.75 27.25 17.40625 20.4375 
Q 20.0625 13.625 25.671875 10.25 
Q 31.296875 6.890625 37.84375 6.890625 
Q 45.796875 6.890625 51.3125 11.46875 
Q 56.84375 16.0625 58.796875 25.09375 
z
" id="ArialMT-67"/>
      <path d="M 7.71875 0 
L 7.71875 71.578125 
L 32.375 71.578125 
Q 40.71875 71.578125 45.125 70.5625 
Q 51.265625 69.140625 55.609375 65.4375 
Q 61.28125 60.640625 64.078125 53.1875 
Q 66.890625 45.75 66.890625 36.1875 
Q 66.890625 28.03125 64.984375 21.734375 
Q 63.09375 15.4375 60.109375 11.296875 
Q 57.125 7.171875 53.578125 4.796875 
Q 50.046875 2.4375 45.046875 1.21875 
Q 40.046875 0 33.546875 0 
z
M 17.1875 8.453125 
L 32.46875 8.453125 
Q 39.546875 8.453125 43.578125 9.765625 
Q 47.609375 11.078125 50 13.484375 
Q 53.375 16.84375 55.25 22.53125 
Q 57.125 28.21875 57.125 36.328125 
Q 57.125 47.5625 53.4375 53.59375 
Q 49.75 59.625 44.484375 61.671875 
Q 40.671875 63.140625 32.234375 63.140625 
L 17.1875 63.140625 
z
" id="ArialMT-68"/>
      <path d="M 8.203125 0 
L 8.203125 71.578125 
L 56.5 71.578125 
L 56.5 63.140625 
L 17.671875 63.140625 
L 17.671875 40.96875 
L 51.265625 40.96875 
L 51.265625 32.515625 
L 17.671875 32.515625 
L 17.671875 0 
z
" id="ArialMT-70"/>
     </defs>
     <g style="fill:#262626;" transform="translate(21.549375 220.993516)rotate(-90)scale(0.12 -0.12)">
      <use xlink:href="#ArialMT-67"/>
      <use x="72.216797" xlink:href="#ArialMT-68"/>
      <use x="144.433594" xlink:href="#ArialMT-70"/>
     </g>
    </g>
   </g>
   <g id="patch_3">
    <path clip-path="url(#p03c9340cc8)" d="M 75.439203 404.365156 
L 75.439203 404.330441 
L 86.654524 404.239285 
L 86.654524 404.214805 
L 180.115531 404.323175 
L 180.115531 404.32654 
L 449.283231 404.36512 
L 449.283231 404.365156 
" style="fill:none;stroke:#4c72b0;stroke-linejoin:miter;"/>
   </g>
   <g id="patch_4">
    <path clip-path="url(#p03c9340cc8)" d="M 75.375085 404.365156 
L 75.375085 404.331293 
L 86.07862 404.244142 
L 86.07862 404.216541 
L 182.410435 404.327131 
L 182.410435 404.331218 
L 432.159586 404.365119 
L 432.159586 404.365156 
" style="fill:none;stroke:#dd8452;stroke-linejoin:miter;"/>
   </g>
   <g id="patch_5">
    <path clip-path="url(#p03c9340cc8)" d="M 75.50557 404.365156 
L 75.50557 404.323678 
L 89.092081 404.222463 
L 89.092081 404.20326 
L 170.611151 404.312097 
L 170.611151 404.318212 
L 528.38929 404.365127 
L 528.38929 404.365156 
" style="fill:none;stroke:#c44e52;stroke-linejoin:miter;"/>
   </g>
   <g id="line2d_14">
    <path clip-path="url(#p03c9340cc8)" d="M 75.375085 404.361429 
L 76.041688 404.219777 
L 76.14199 404.175045 
L 76.39251 404.029666 
L 76.914931 403.679265 
L 77.121027 403.518976 
L 77.273577 403.377324 
L 77.449182 403.194668 
L 77.644898 402.959825 
L 77.928162 402.587059 
L 78.403067 401.908623 
L 78.566216 401.681235 
L 78.76489 401.327107 
L 78.943959 400.995344 
L 79.169413 400.607667 
L 79.406568 400.175257 
L 79.553094 399.951597 
L 79.689309 399.683205 
L 79.833638 399.373809 
L 79.953073 399.176242 
L 80.064704 398.885484 
L 80.255646 398.490351 
L 80.676942 397.46897 
L 80.763721 397.208033 
L 81.004455 396.663794 
L 81.07933 396.47741 
L 81.261478 396.018907 
L 81.374478 395.765426 
L 81.555647 395.299467 
L 81.619715 395.094446 
L 81.902092 394.341457 
L 82.007414 394.061881 
L 82.203943 393.446816 
L 82.393139 392.898849 
L 82.626074 392.231596 
L 83.016733 391.087202 
L 83.094149 390.882181 
L 83.259409 390.401311 
L 83.529855 389.517854 
L 83.660877 389.10781 
L 83.712272 388.951248 
L 83.832473 388.559843 
L 83.969547 388.090157 
L 84.098118 387.65402 
L 84.681602 385.614985 
L 84.808884 385.126661 
L 85.049419 384.246931 
L 85.132244 383.948718 
L 85.315687 383.247916 
L 85.444868 382.82669 
L 85.780887 381.637564 
L 85.867239 381.335622 
L 86.352848 379.441967 
L 86.628955 378.387037 
L 86.723219 378.051547 
L 87.40455 375.252068 
L 87.798785 373.541068 
L 88.009883 372.724709 
L 88.075765 372.452589 
L 88.200396 371.841252 
L 88.262813 371.580315 
L 88.38733 371.07708 
L 88.63755 369.999784 
L 88.726446 369.664293 
L 88.871377 369.097688 
L 88.937718 368.788291 
L 89.045718 368.337244 
L 89.170302 367.830281 
L 89.214471 367.599165 
L 91.691429 356.304331 
L 91.82779 355.659444 
L 91.962117 355.018285 
L 94.45383 343.186666 
L 94.612437 342.426222 
L 94.715329 341.945353 
L 94.916965 341.005981 
L 94.990072 340.659307 
L 95.206068 339.630471 
L 95.326016 339.082504 
L 95.505978 338.068578 
L 95.602789 337.44233 
L 95.857317 336.230838 
L 95.955415 335.813339 
L 96.174216 334.773319 
L 96.333406 333.979326 
L 96.494011 333.17415 
L 96.535697 332.980311 
L 96.646882 332.372701 
L 96.719818 331.936564 
L 97.484814 327.817491 
L 97.847992 325.912652 
L 97.905492 325.603256 
L 98.146208 324.339576 
L 98.432728 322.967794 
L 98.841094 320.716283 
L 98.901547 320.414342 
L 100.256875 313.600164 
L 100.401606 312.914273 
L 104.333627 292.527656 
L 104.448102 291.931229 
L 104.508985 291.655382 
L 104.622659 291.092504 
L 104.938407 289.359138 
L 105.048847 288.78135 
L 105.125858 288.427221 
L 105.351275 287.23064 
L 105.751059 285.213971 
L 106.972164 279.07823 
L 107.084833 278.47062 
L 107.206037 277.81455 
L 110.417687 261.785577 
L 110.755311 260.216229 
L 110.823825 259.839734 
L 111.120682 258.348667 
L 111.280125 257.584495 
L 111.574064 256.071062 
L 111.855795 254.796199 
L 112.157654 253.271583 
L 112.252727 252.816807 
L 112.390069 252.231564 
L 112.436552 252.078729 
L 112.576915 251.411477 
L 112.644524 250.997705 
L 112.757428 250.38264 
L 112.84658 249.942775 
L 113.084693 248.913939 
L 113.914206 244.761317 
L 114.038147 244.213349 
L 114.259115 243.12487 
L 114.343496 242.718554 
L 114.62872 241.309496 
L 114.691574 241.029921 
L 115.048166 239.423296 
L 115.090171 239.225729 
L 115.23031 238.573387 
L 115.418893 237.667564 
L 115.545229 237.056226 
L 115.745605 236.172769 
L 115.865048 235.527883 
L 115.918758 235.255763 
L 116.045298 234.625787 
L 116.477113 232.776863 
L 116.531027 232.553203 
L 117.085616 229.966202 
L 117.198277 229.518881 
L 117.609996 227.655047 
L 117.652257 227.502213 
L 117.926085 226.294448 
L 118.296589 224.728828 
L 118.420443 224.173405 
L 121.029079 212.930758 
L 121.129627 212.446161 
L 121.285754 211.737904 
L 121.344419 211.547793 
L 121.453081 211.107928 
L 121.667008 210.190922 
L 121.874424 209.411839 
L 122.014814 208.785591 
L 122.128204 208.297267 
L 122.263706 207.790304 
L 122.701151 205.892921 
L 122.829061 205.315132 
L 122.900071 204.972187 
L 123.709711 201.792486 
L 123.886938 201.087956 
L 124.035507 200.525079 
L 124.198009 199.831732 
L 124.413749 198.996735 
L 124.661069 197.863523 
L 124.827683 197.039709 
L 125.217692 195.492727 
L 125.326631 195.00813 
L 125.411927 194.709916 
L 125.527002 194.258868 
L 125.604169 193.901012 
L 125.797757 193.155479 
L 125.940899 192.555324 
L 126.008291 192.268294 
L 126.359967 190.859235 
L 126.502614 190.337361 
L 126.662138 189.655198 
L 127.429355 186.773711 
L 127.590841 186.177284 
L 128.210462 183.672291 
L 128.310204 183.325618 
L 128.443597 182.744101 
L 128.50131 182.531624 
L 128.785422 181.603435 
L 131.356937 172.284265 
L 131.451897 172.008417 
L 131.693932 171.143598 
L 131.795164 170.80438 
L 131.917832 170.345877 
L 132.005376 170.077485 
L 132.135709 169.585433 
L 132.183295 169.399049 
L 132.317728 168.925636 
L 132.433121 168.530503 
L 132.544953 168.105549 
L 132.720045 167.445751 
L 132.871562 166.957427 
L 132.917334 166.75986 
L 133.439276 164.918392 
L 133.594555 164.359242 
L 133.673407 164.094578 
L 133.79713 163.677079 
L 133.900508 163.32295 
L 134.071634 162.760072 
L 140.891955 141.053861 
L 141.017498 140.707188 
L 141.399263 139.491968 
L 141.482587 139.260852 
L 141.593581 138.921635 
L 141.775955 138.418399 
L 141.887752 138.079182 
L 142.337126 136.83414 
L 142.636208 136.021509 
L 143.015604 134.970306 
L 143.098589 134.754102 
L 143.225532 134.407428 
L 143.351631 134.023479 
L 143.482901 133.65444 
L 143.55535 133.427052 
L 144.693106 130.273444 
L 145.8597 127.29131 
L 145.921138 127.097471 
L 146.148019 126.433946 
L 146.235022 126.214014 
L 146.397625 125.807698 
L 146.647248 125.159084 
L 146.849708 124.689398 
L 146.92088 124.503014 
L 147.076217 124.063149 
L 147.206911 123.865583 
L 147.340314 123.507727 
L 147.393168 123.362348 
L 147.89668 122.158311 
L 148.058903 121.75945 
L 148.207107 121.397867 
L 148.946278 119.619769 
L 149.031458 119.370015 
L 149.226852 118.933878 
L 149.284487 118.807137 
L 149.421189 118.516379 
L 149.54227 118.184617 
L 149.797795 117.610556 
L 149.938803 117.327253 
L 150.224639 116.577992 
L 151.699477 113.029252 
L 153.932921 108.105002 
L 154.020593 107.911163 
L 154.390966 107.050072 
L 154.487857 106.856233 
L 154.622444 106.584113 
L 154.820365 106.155432 
L 155.060286 105.659652 
L 155.17561 105.417353 
L 155.27159 105.219787 
L 155.423246 104.914118 
L 155.518958 104.697913 
L 155.644997 104.340057 
L 155.810769 103.993384 
L 156.165756 103.177025 
L 156.279535 102.96082 
L 156.378872 102.781892 
L 156.603029 102.360665 
L 157.003623 101.484663 
L 157.122479 101.272186 
L 157.57128 100.399912 
L 157.687004 100.198618 
L 157.904007 99.758753 
L 158.029658 99.464267 
L 158.220413 99.039313 
L 158.838861 97.798 
L 158.961244 97.537063 
L 159.106529 97.283581 
L 159.250531 97.022645 
L 159.372308 96.798984 
L 159.664517 96.295749 
L 160.105494 95.408564 
L 160.186798 95.252002 
L 160.400454 94.868052 
L 160.90126 93.846671 
L 161.104682 93.473904 
L 161.227969 93.276338 
L 165.146118 86.432339 
L 165.248934 86.27205 
L 167.768388 82.462373 
L 167.912868 82.22753 
L 168.395701 81.470813 
L 168.504429 81.332889 
L 171.998575 76.636027 
L 172.154314 76.453372 
L 172.262574 76.285627 
L 172.431005 76.032145 
L 172.556945 75.875583 
L 173.544871 74.58581 
L 173.694188 74.395699 
L 173.798147 74.227954 
L 174.342322 73.59425 
L 174.477565 73.426505 
L 174.95889 72.837534 
L 175.23283 72.457311 
L 175.402474 72.278383 
L 175.552277 72.095728 
L 175.782158 71.786331 
L 176.047215 71.465752 
L 176.338309 71.186177 
L 176.451012 71.10044 
L 176.769371 70.76495 
L 177.088417 70.388456 
L 177.305529 70.183434 
L 177.456394 69.978412 
L 177.661863 69.777118 
L 179.205039 68.122033 
L 179.381569 67.924467 
L 179.540339 67.77536 
L 179.861929 67.387683 
L 180.068999 67.160295 
L 180.287819 66.932907 
L 180.463719 66.787528 
L 180.644355 66.619783 
L 180.819836 66.429672 
L 180.965246 66.235833 
L 185.306222 62.008658 
L 185.60913 61.73281 
L 185.727934 61.632163 
L 186.036096 61.356316 
L 186.305957 61.117745 
L 186.456314 60.927634 
L 186.572844 60.856808 
L 187.346402 60.245471 
L 187.52617 60.137368 
L 189.032707 58.881144 
L 189.174163 58.754403 
L 190.104217 58.049874 
L 190.763483 57.550366 
L 191.072066 57.371438 
L 191.228497 57.274519 
L 191.510938 57.106774 
L 191.691939 56.972578 
L 191.950046 56.819744 
L 193.066418 55.932558 
L 197.025813 53.129352 
L 197.344676 52.976518 
L 198.00888 52.54038 
L 198.822601 52.003596 
L 199.038364 51.865673 
L 199.496069 51.563731 
L 199.877825 51.306522 
L 200.150416 51.108956 
L 200.431011 50.967305 
L 201.159776 50.505074 
L 201.264203 50.441703 
L 201.540333 50.244137 
L 201.798953 50.087575 
L 202.119766 49.893736 
L 202.307523 49.789361 
L 204.445412 48.712065 
L 204.655356 48.618874 
L 205.047466 48.473495 
L 205.15535 48.428762 
L 206.173517 47.932983 
L 206.48255 47.791331 
L 206.783972 47.653408 
L 209.125073 46.475464 
L 209.438896 46.32263 
L 209.616998 46.225711 
L 214.865388 43.98911 
L 215.31514 43.810182 
L 216.435844 43.336768 
L 216.833756 43.191389 
L 218.120397 42.755252 
L 218.229186 42.695609 
L 218.709027 42.479404 
L 218.83984 42.4384 
L 220.921215 41.786058 
L 221.170301 41.71896 
L 221.581927 41.573581 
L 221.693162 41.540032 
L 222.203131 41.387197 
L 222.509744 41.294006 
L 223.066973 41.126261 
L 225.452816 40.45528 
L 225.78947 40.34345 
L 226.609595 40.086241 
L 226.743579 40.05642 
L 230.368008 39.150596 
L 230.459005 39.131958 
L 231.413048 38.900843 
L 232.3821 38.714459 
L 233.384987 38.490799 
L 233.730905 38.423701 
L 234.450915 38.274594 
L 235.473889 38.069573 
L 236.515357 37.857096 
L 237.006272 37.730355 
L 238.70117 37.417231 
L 238.936637 37.350133 
L 240.750083 37.007187 
L 240.84799 36.969911 
L 242.636793 36.664242 
L 242.825981 36.626965 
L 244.321275 36.392122 
L 244.439698 36.366028 
L 244.607564 36.343662 
L 245.859516 36.179645 
L 245.929947 36.164734 
L 247.120435 36.019355 
L 247.744409 35.937347 
L 250.464921 35.560852 
L 250.73262 35.519848 
L 252.359686 35.337192 
L 252.99409 35.251456 
L 256.982171 34.785497 
L 258.232936 34.63639 
L 264.932977 33.91695 
L 266.879858 33.764116 
L 269.351755 33.592643 
L 273.47426 33.350345 
L 283.153271 32.813561 
L 299.080898 32.310325 
L 307.65385 32.14258 
L 313.205637 32.064299 
L 326.108792 31.889099 
L 347.535818 31.713898 
L 432.159586 31.598341 
L 432.159586 31.598341 
" style="fill:none;stroke:#55a868;stroke-linecap:round;stroke-width:1.5;"/>
   </g>
   <g id="line2d_15">
    <path clip-path="url(#p03c9340cc8)" d="M 75.50557 404.361429 
L 76.055739 404.234688 
L 76.279615 404.137768 
L 77.326731 403.362414 
L 77.559877 403.071655 
L 77.759375 402.851723 
L 78.172485 402.389492 
L 78.834974 401.308468 
L 78.987703 401.069898 
L 79.183792 400.820144 
L 79.552361 400.201351 
L 79.645004 399.996329 
L 79.830578 399.586286 
L 79.932861 399.373809 
L 80.054043 399.075595 
L 80.319184 398.549994 
L 82.561832 392.798202 
L 82.704739 392.380703 
L 82.935709 391.713451 
L 83.170738 390.912002 
L 83.239997 390.710708 
L 83.355053 390.315575 
L 85.613885 382.763319 
L 85.779801 382.12216 
L 86.077693 381.015043 
L 86.195979 380.608727 
L 86.249018 380.426071 
L 86.710885 378.644246 
L 86.817976 378.260296 
L 88.354007 371.982903 
L 88.49359 371.341744 
L 88.558568 371.050986 
L 88.866661 369.6382 
L 89.159624 368.355882 
L 89.206529 368.154588 
L 89.400607 367.241309 
L 89.525563 366.719436 
L 89.867557 365.045713 
L 89.907317 364.866784 
L 90.073628 364.121251 
L 90.1371 363.845403 
L 90.257331 363.289981 
L 90.360389 362.797929 
L 90.495902 362.205229 
L 91.272862 358.902515 
L 91.392823 358.376914 
L 91.50204 357.832675 
L 92.452981 353.530946 
L 92.609816 352.848782 
L 92.668682 352.56548 
L 92.790822 351.995146 
L 92.883831 351.588831 
L 93.642232 348.084822 
L 93.854836 347.149178 
L 93.993475 346.496836 
L 94.075856 346.101703 
L 94.208045 345.486638 
L 94.373506 344.692644 
L 94.604709 343.626531 
L 96.44579 334.545932 
L 96.558168 333.848858 
L 96.759534 332.883392 
L 97.017614 331.660717 
L 97.676684 328.328181 
L 97.786123 327.73921 
L 97.812354 327.57892 
L 97.939078 326.975038 
L 97.984037 326.74765 
L 98.109332 326.009572 
L 98.260266 325.223034 
L 98.33581 324.894999 
L 99.650058 318.095732 
L 99.779846 317.402386 
L 100.251569 314.968219 
L 100.390959 314.233868 
L 100.540758 313.451058 
L 100.579274 313.246036 
L 101.769086 307.117749 
L 101.922002 306.286479 
L 102.083207 305.425388 
L 102.207654 304.758135 
L 102.417939 303.74421 
L 102.662318 302.432071 
L 102.824108 301.641805 
L 103.01877 300.609241 
L 103.270597 299.185272 
L 103.389775 298.514291 
L 107.62943 276.621696 
L 107.853495 275.421387 
L 108.036037 274.549113 
L 108.176787 273.859494 
L 108.25932 273.479272 
L 108.35909 272.998403 
L 108.475875 272.465346 
L 108.537828 272.178316 
L 108.681816 271.462604 
L 108.793923 270.862449 
L 108.985965 269.911894 
L 109.034222 269.67705 
L 109.325394 268.230715 
L 112.796957 251.094625 
L 112.850132 250.856054 
L 113.078728 249.655745 
L 113.207749 249.025769 
L 113.382656 248.205682 
L 115.555429 238.170799 
L 115.63217 237.73839 
L 115.7638 237.14569 
L 115.839275 236.802745 
L 116.921674 231.639925 
L 117.241723 230.156313 
L 117.387188 229.403324 
L 117.921928 226.849871 
L 118.01276 226.488287 
L 118.131863 225.944048 
L 118.188049 225.701749 
L 118.315237 225.101595 
L 118.410292 224.669185 
L 118.522322 224.184588 
L 119.190428 221.187543 
L 119.252769 220.907968 
L 119.403673 220.263081 
L 120.055224 217.448692 
L 120.352964 216.170102 
L 120.568404 215.271734 
L 123.630904 201.744026 
L 123.876374 200.648092 
L 124.043941 199.921196 
L 124.082935 199.742268 
L 124.170178 199.33968 
L 127.704791 185.297554 
L 127.781914 185.055256 
L 127.935222 184.406641 
L 128.04982 183.99287 
L 128.453408 182.334058 
L 128.718661 181.316405 
L 129.115665 179.761967 
L 129.309386 179.038799 
L 129.448884 178.539292 
L 129.587753 177.88695 
L 130.011689 176.302691 
L 130.080385 176.049209 
L 130.25613 175.374502 
L 130.345513 175.053922 
L 130.575885 174.22638 
L 130.801375 173.525578 
L 130.943834 173.018615 
L 131.108646 172.459465 
L 131.255263 171.896587 
L 132.428025 167.889344 
L 132.48784 167.676867 
L 132.780569 166.659213 
L 132.962149 166.036693 
L 133.1313 165.484998 
L 133.257305 165.030222 
L 133.364804 164.732009 
L 133.411944 164.571719 
L 133.531706 164.20268 
L 133.633306 163.900739 
L 133.720525 163.565249 
L 133.899585 162.927818 
L 133.992895 162.659425 
L 137.330798 151.834277 
L 137.369696 151.696353 
L 137.518959 151.211757 
L 137.690482 150.645151 
L 137.947709 149.899617 
L 138.033151 149.731872 
L 138.130785 149.437386 
L 138.267645 149.01616 
L 138.479922 148.542746 
L 138.616266 148.125247 
L 138.815542 147.592191 
L 138.940335 147.185875 
L 139.062913 146.787014 
L 139.176929 146.417975 
L 140.154873 143.271823 
L 140.756039 141.531002 
L 140.897645 141.188057 
L 140.975091 140.983035 
L 141.065142 140.737009 
L 141.18778 140.423885 
L 141.367386 139.916922 
L 141.446991 139.682079 
L 141.562521 139.350316 
L 144.379931 131.578128 
L 144.484769 131.332102 
L 144.63904 130.966791 
L 144.846569 130.39273 
L 144.971762 130.05724 
L 145.810591 127.809456 
L 145.898451 127.652894 
L 146.058771 127.265216 
L 146.218302 126.884994 
L 146.414256 126.407853 
L 147.36406 123.701566 
L 147.617923 123.049224 
L 147.736616 122.777104 
L 147.932398 122.232864 
L 148.279578 121.29722 
L 148.484677 120.779074 
L 148.598693 120.495771 
L 148.74759 120.175191 
L 148.804114 120.029812 
L 149.652784 118.072787 
L 149.736013 117.852854 
L 149.941904 117.420445 
L 150.100541 117.114776 
L 150.227338 116.82029 
L 150.441026 116.305872 
L 151.817289 113.163448 
L 151.931928 112.883873 
L 152.005955 112.738493 
L 152.11962 112.470101 
L 152.431095 111.780483 
L 152.494067 111.638831 
L 152.66869 111.228788 
L 152.810799 110.934302 
L 152.973403 110.550352 
L 153.135471 110.203679 
L 153.245763 109.942742 
L 153.505925 109.353771 
L 153.627053 109.089106 
L 154.636611 106.968063 
L 154.751697 106.759314 
L 154.871562 106.520743 
L 155.180468 105.831124 
L 155.37969 105.402443 
L 155.496945 105.137778 
L 155.617458 104.888024 
L 155.739765 104.653181 
L 155.879847 104.291597 
L 158.213527 99.52391 
L 158.296443 99.359892 
L 158.446198 99.0915 
L 158.614255 98.726189 
L 158.9885 98.025387 
L 159.673622 96.810167 
L 159.816628 96.552958 
L 160.183483 95.874523 
L 160.400642 95.486845 
L 160.603716 95.147627 
L 160.752538 94.845686 
L 166.469939 85.079196 
L 166.626661 84.851808 
L 167.186836 84.039176 
L 167.424204 83.696231 
L 167.535712 83.491209 
L 167.637033 83.323464 
L 168.725495 81.713111 
L 168.898799 81.440992 
L 169.080038 81.165144 
L 169.231113 80.922846 
L 173.938164 74.656636 
L 174.048754 74.52244 
L 174.174164 74.36215 
L 174.361486 74.172039 
L 174.71994 73.638982 
L 175.140671 73.057466 
L 175.281057 72.908359 
L 175.433038 72.721976 
L 175.546307 72.580324 
L 176.27232 71.629769 
L 176.397415 71.465752 
L 176.556812 71.290551 
L 177.344508 70.36609 
L 177.478625 70.213255 
L 177.691323 69.926225 
L 178.254815 69.229151 
L 178.363656 69.098682 
L 178.970598 68.412791 
L 179.315198 67.98411 
L 181.056388 66.056905 
L 181.20899 65.904071 
L 182.665367 64.480102 
L 182.834565 64.27508 
L 182.962658 64.144611 
L 184.106419 62.921936 
L 184.235415 62.806379 
L 184.434319 62.631178 
L 184.763864 62.347875 
L 187.391957 59.969623 
L 187.606759 59.78324 
L 187.840834 59.604312 
L 190.482257 57.311796 
L 190.623357 57.1776 
L 190.928601 56.946484 
L 197.29181 52.406184 
L 197.640999 52.193707 
L 197.81984 52.055784 
L 198.273338 51.768753 
L 198.592793 51.593553 
L 200.251498 50.65418 
L 200.383546 50.568444 
L 200.564288 50.41561 
L 200.728344 50.307507 
L 201.380543 49.912374 
L 201.486957 49.845276 
L 201.923426 49.614161 
L 202.043871 49.547063 
L 202.962121 49.066194 
L 203.153979 48.931998 
L 205.737306 47.582582 
L 206.109016 47.411109 
L 206.264936 47.310462 
L 206.625406 47.120351 
L 208.58789 46.154885 
L 208.732734 46.087787 
L 209.00579 45.949863 
L 209.114608 45.908859 
L 209.553626 45.770935 
L 215.792522 43.28458 
L 216.260186 43.120563 
L 217.384151 42.680698 
L 217.876119 42.457038 
L 218.853275 42.155097 
L 219.998503 41.730143 
L 220.525023 41.599674 
L 220.653093 41.547487 
L 228.599702 39.281065 
L 233.47323 38.088211 
L 233.722567 38.021113 
L 235.71323 37.678168 
L 236.709934 37.532788 
L 238.38684 37.238303 
L 238.527041 37.204754 
L 239.327621 37.040736 
L 239.441144 37.014643 
L 239.81902 36.921451 
L 241.121832 36.656786 
L 241.274217 36.638148 
L 244.182929 36.239288 
L 245.09947 36.093909 
L 248.073641 35.736052 
L 248.406035 35.672682 
L 254.324159 35.001702 
L 256.430537 34.781769 
L 256.549071 34.751948 
L 257.950889 34.580475 
L 258.499018 34.52456 
L 260.490823 34.319539 
L 260.758492 34.293445 
L 264.068904 34.036236 
L 264.148921 34.017597 
L 267.5128 33.786482 
L 270.674047 33.547911 
L 272.41332 33.402532 
L 272.520697 33.387621 
L 276.625619 33.204966 
L 277.671382 33.130412 
L 280.104738 32.985033 
L 280.59208 32.951484 
L 285.364773 32.739007 
L 285.507399 32.727824 
L 296.571589 32.340147 
L 298.098139 32.299142 
L 348.432926 31.721354 
L 399.858722 31.620707 
L 528.38929 31.598341 
L 528.38929 31.598341 
" style="fill:none;stroke:#8172b3;stroke-linecap:round;stroke-width:1.5;"/>
   </g>
   <g id="patch_6">
    <path d="M 52.724375 404.365156 
L 52.724375 12.96 
" style="fill:none;stroke:#ffffff;stroke-linecap:square;stroke-linejoin:miter;stroke-width:1.25;"/>
   </g>
   <g id="patch_7">
    <path d="M 551.04 404.365156 
L 551.04 12.96 
" style="fill:none;stroke:#ffffff;stroke-linecap:square;stroke-linejoin:miter;stroke-width:1.25;"/>
   </g>
   <g id="patch_8">
    <path d="M 52.724375 404.365156 
L 551.04 404.365156 
" style="fill:none;stroke:#ffffff;stroke-linecap:square;stroke-linejoin:miter;stroke-width:1.25;"/>
   </g>
   <g id="patch_9">
    <path d="M 52.724375 12.96 
L 551.04 12.96 
" style="fill:none;stroke:#ffffff;stroke-linecap:square;stroke-linejoin:miter;stroke-width:1.25;"/>
   </g>
  </g>
 </g>
 <defs>
  <clipPath id="p03c9340cc8">
   <rect height="391.405156" width="498.315625" x="52.724375" y="12.96"/>
  </clipPath>
 </defs>
</svg>
