<?xml version="1.0" encoding="utf-8" standalone="no"?>
<!DOCTYPE svg PUBLIC "-//W3C//DTD SVG 1.1//EN"
  "http://www.w3.org/Graphics/SVG/1.1/DTD/svg11.dtd">
<!-- Created with matplotlib (https://matplotlib.org/) -->
<svg height="453pt" version="1.1" viewBox="0 0 566 453" width="566pt" xmlns="http://www.w3.org/2000/svg" xmlns:xlink="http://www.w3.org/1999/xlink">
 <defs>
  <style type="text/css">
*{stroke-linecap:butt;stroke-linejoin:round;}
  </style>
 </defs>
 <g id="figure_1">
  <g id="patch_1">
   <path d="M 0 453 
L 566 453 
L 566 0 
L 0 0 
z
" style="fill:#ffffff;"/>
  </g>
  <g id="axes_1">
   <g id="patch_2">
    <path d="M 43.867031 420.480156 
L 553.04 420.480156 
L 553.04 12.96 
L 43.867031 12.96 
z
" style="fill:#eaeaf2;"/>
   </g>
   <g id="matplotlib.axis_1">
    <g id="xtick_1">
     <g id="line2d_1">
      <path clip-path="url(#p0f0785637a)" d="M 89.202362 420.480156 
L 89.202362 12.96 
" style="fill:none;stroke:#ffffff;stroke-linecap:round;"/>
     </g>
     <g id="text_1">
      <!-- −20 -->
      <defs>
       <path d="M 52.828125 31.203125 
L 5.5625 31.203125 
L 5.5625 39.40625 
L 52.828125 39.40625 
z
" id="ArialMT-8722"/>
       <path d="M 50.34375 8.453125 
L 50.34375 0 
L 3.03125 0 
Q 2.9375 3.171875 4.046875 6.109375 
Q 5.859375 10.9375 9.828125 15.625 
Q 13.8125 20.3125 21.34375 26.46875 
Q 33.015625 36.03125 37.109375 41.625 
Q 41.21875 47.21875 41.21875 52.203125 
Q 41.21875 57.421875 37.46875 61 
Q 33.734375 64.59375 27.734375 64.59375 
Q 21.390625 64.59375 17.578125 60.78125 
Q 13.765625 56.984375 13.71875 50.25 
L 4.6875 51.171875 
Q 5.609375 61.28125 11.65625 66.578125 
Q 17.71875 71.875 27.9375 71.875 
Q 38.234375 71.875 44.234375 66.15625 
Q 50.25 60.453125 50.25 52 
Q 50.25 47.703125 48.484375 43.546875 
Q 46.734375 39.40625 42.65625 34.8125 
Q 38.578125 30.21875 29.109375 22.21875 
Q 21.1875 15.578125 18.9375 13.203125 
Q 16.703125 10.84375 15.234375 8.453125 
z
" id="ArialMT-50"/>
       <path d="M 4.15625 35.296875 
Q 4.15625 48 6.765625 55.734375 
Q 9.375 63.484375 14.515625 67.671875 
Q 19.671875 71.875 27.484375 71.875 
Q 33.25 71.875 37.59375 69.546875 
Q 41.9375 67.234375 44.765625 62.859375 
Q 47.609375 58.5 49.21875 52.21875 
Q 50.828125 45.953125 50.828125 35.296875 
Q 50.828125 22.703125 48.234375 14.96875 
Q 45.65625 7.234375 40.5 3 
Q 35.359375 -1.21875 27.484375 -1.21875 
Q 17.140625 -1.21875 11.234375 6.203125 
Q 4.15625 15.140625 4.15625 35.296875 
z
M 13.1875 35.296875 
Q 13.1875 17.671875 17.3125 11.828125 
Q 21.4375 6 27.484375 6 
Q 33.546875 6 37.671875 11.859375 
Q 41.796875 17.71875 41.796875 35.296875 
Q 41.796875 52.984375 37.671875 58.78125 
Q 33.546875 64.59375 27.390625 64.59375 
Q 21.34375 64.59375 17.71875 59.46875 
Q 13.1875 52.9375 13.1875 35.296875 
z
" id="ArialMT-48"/>
      </defs>
      <g style="fill:#262626;" transform="translate(79.872987 437.85375)scale(0.11 -0.11)">
       <use xlink:href="#ArialMT-8722"/>
       <use x="58.398438" xlink:href="#ArialMT-50"/>
       <use x="114.013672" xlink:href="#ArialMT-48"/>
      </g>
     </g>
    </g>
    <g id="xtick_2">
     <g id="line2d_2">
      <path clip-path="url(#p0f0785637a)" d="M 196.435303 420.480156 
L 196.435303 12.96 
" style="fill:none;stroke:#ffffff;stroke-linecap:round;"/>
     </g>
     <g id="text_2">
      <!-- 0 -->
      <g style="fill:#262626;" transform="translate(193.376787 437.85375)scale(0.11 -0.11)">
       <use xlink:href="#ArialMT-48"/>
      </g>
     </g>
    </g>
    <g id="xtick_3">
     <g id="line2d_3">
      <path clip-path="url(#p0f0785637a)" d="M 303.668243 420.480156 
L 303.668243 12.96 
" style="fill:none;stroke:#ffffff;stroke-linecap:round;"/>
     </g>
     <g id="text_3">
      <!-- 20 -->
      <g style="fill:#262626;" transform="translate(297.551212 437.85375)scale(0.11 -0.11)">
       <use xlink:href="#ArialMT-50"/>
       <use x="55.615234" xlink:href="#ArialMT-48"/>
      </g>
     </g>
    </g>
    <g id="xtick_4">
     <g id="line2d_4">
      <path clip-path="url(#p0f0785637a)" d="M 410.901184 420.480156 
L 410.901184 12.96 
" style="fill:none;stroke:#ffffff;stroke-linecap:round;"/>
     </g>
     <g id="text_4">
      <!-- 40 -->
      <defs>
       <path d="M 32.328125 0 
L 32.328125 17.140625 
L 1.265625 17.140625 
L 1.265625 25.203125 
L 33.9375 71.578125 
L 41.109375 71.578125 
L 41.109375 25.203125 
L 50.78125 25.203125 
L 50.78125 17.140625 
L 41.109375 17.140625 
L 41.109375 0 
z
M 32.328125 25.203125 
L 32.328125 57.46875 
L 9.90625 25.203125 
z
" id="ArialMT-52"/>
      </defs>
      <g style="fill:#262626;" transform="translate(404.784153 437.85375)scale(0.11 -0.11)">
       <use xlink:href="#ArialMT-52"/>
       <use x="55.615234" xlink:href="#ArialMT-48"/>
      </g>
     </g>
    </g>
    <g id="xtick_5">
     <g id="line2d_5">
      <path clip-path="url(#p0f0785637a)" d="M 518.134125 420.480156 
L 518.134125 12.96 
" style="fill:none;stroke:#ffffff;stroke-linecap:round;"/>
     </g>
     <g id="text_5">
      <!-- 60 -->
      <defs>
       <path d="M 49.75 54.046875 
L 41.015625 53.375 
Q 39.84375 58.546875 37.703125 60.890625 
Q 34.125 64.65625 28.90625 64.65625 
Q 24.703125 64.65625 21.53125 62.3125 
Q 17.390625 59.28125 14.984375 53.46875 
Q 12.59375 47.65625 12.5 36.921875 
Q 15.671875 41.75 20.265625 44.09375 
Q 24.859375 46.4375 29.890625 46.4375 
Q 38.671875 46.4375 44.84375 39.96875 
Q 51.03125 33.5 51.03125 23.25 
Q 51.03125 16.5 48.125 10.71875 
Q 45.21875 4.9375 40.140625 1.859375 
Q 35.0625 -1.21875 28.609375 -1.21875 
Q 17.625 -1.21875 10.6875 6.859375 
Q 3.765625 14.9375 3.765625 33.5 
Q 3.765625 54.25 11.421875 63.671875 
Q 18.109375 71.875 29.4375 71.875 
Q 37.890625 71.875 43.28125 67.140625 
Q 48.6875 62.40625 49.75 54.046875 
z
M 13.875 23.1875 
Q 13.875 18.65625 15.796875 14.5 
Q 17.71875 10.359375 21.1875 8.171875 
Q 24.65625 6 28.46875 6 
Q 34.03125 6 38.03125 10.484375 
Q 42.046875 14.984375 42.046875 22.703125 
Q 42.046875 30.125 38.078125 34.390625 
Q 34.125 38.671875 28.125 38.671875 
Q 22.171875 38.671875 18.015625 34.390625 
Q 13.875 30.125 13.875 23.1875 
z
" id="ArialMT-54"/>
      </defs>
      <g style="fill:#262626;" transform="translate(512.017094 437.85375)scale(0.11 -0.11)">
       <use xlink:href="#ArialMT-54"/>
       <use x="55.615234" xlink:href="#ArialMT-48"/>
      </g>
     </g>
    </g>
   </g>
   <g id="matplotlib.axis_2">
    <g id="ytick_1">
     <g id="line2d_6">
      <path clip-path="url(#p0f0785637a)" d="M 43.867031 411.002943 
L 553.04 411.002943 
" style="fill:none;stroke:#ffffff;stroke-linecap:round;"/>
     </g>
     <g id="text_6">
      <!-- 0.00 -->
      <defs>
       <path d="M 9.078125 0 
L 9.078125 10.015625 
L 19.09375 10.015625 
L 19.09375 0 
z
" id="ArialMT-46"/>
      </defs>
      <g style="fill:#262626;" transform="translate(12.96 414.93974)scale(0.11 -0.11)">
       <use xlink:href="#ArialMT-48"/>
       <use x="55.615234" xlink:href="#ArialMT-46"/>
       <use x="83.398438" xlink:href="#ArialMT-48"/>
       <use x="139.013672" xlink:href="#ArialMT-48"/>
      </g>
     </g>
    </g>
    <g id="ytick_2">
     <g id="line2d_7">
      <path clip-path="url(#p0f0785637a)" d="M 43.867031 363.616879 
L 553.04 363.616879 
" style="fill:none;stroke:#ffffff;stroke-linecap:round;"/>
     </g>
     <g id="text_7">
      <!-- 0.05 -->
      <defs>
       <path d="M 4.15625 18.75 
L 13.375 19.53125 
Q 14.40625 12.796875 18.140625 9.390625 
Q 21.875 6 27.15625 6 
Q 33.5 6 37.890625 10.78125 
Q 42.28125 15.578125 42.28125 23.484375 
Q 42.28125 31 38.0625 35.34375 
Q 33.84375 39.703125 27 39.703125 
Q 22.75 39.703125 19.328125 37.765625 
Q 15.921875 35.84375 13.96875 32.765625 
L 5.71875 33.84375 
L 12.640625 70.609375 
L 48.25 70.609375 
L 48.25 62.203125 
L 19.671875 62.203125 
L 15.828125 42.96875 
Q 22.265625 47.46875 29.34375 47.46875 
Q 38.71875 47.46875 45.15625 40.96875 
Q 51.609375 34.46875 51.609375 24.265625 
Q 51.609375 14.546875 45.953125 7.46875 
Q 39.0625 -1.21875 27.15625 -1.21875 
Q 17.390625 -1.21875 11.203125 4.25 
Q 5.03125 9.71875 4.15625 18.75 
z
" id="ArialMT-53"/>
      </defs>
      <g style="fill:#262626;" transform="translate(12.96 367.553676)scale(0.11 -0.11)">
       <use xlink:href="#ArialMT-48"/>
       <use x="55.615234" xlink:href="#ArialMT-46"/>
       <use x="83.398438" xlink:href="#ArialMT-48"/>
       <use x="139.013672" xlink:href="#ArialMT-53"/>
      </g>
     </g>
    </g>
    <g id="ytick_3">
     <g id="line2d_8">
      <path clip-path="url(#p0f0785637a)" d="M 43.867031 316.230814 
L 553.04 316.230814 
" style="fill:none;stroke:#ffffff;stroke-linecap:round;"/>
     </g>
     <g id="text_8">
      <!-- 0.10 -->
      <defs>
       <path d="M 37.25 0 
L 28.46875 0 
L 28.46875 56 
Q 25.296875 52.984375 20.140625 49.953125 
Q 14.984375 46.921875 10.890625 45.40625 
L 10.890625 53.90625 
Q 18.265625 57.375 23.78125 62.296875 
Q 29.296875 67.234375 31.59375 71.875 
L 37.25 71.875 
z
" id="ArialMT-49"/>
      </defs>
      <g style="fill:#262626;" transform="translate(12.96 320.167611)scale(0.11 -0.11)">
       <use xlink:href="#ArialMT-48"/>
       <use x="55.615234" xlink:href="#ArialMT-46"/>
       <use x="83.398438" xlink:href="#ArialMT-49"/>
       <use x="139.013672" xlink:href="#ArialMT-48"/>
      </g>
     </g>
    </g>
    <g id="ytick_4">
     <g id="line2d_9">
      <path clip-path="url(#p0f0785637a)" d="M 43.867031 268.844749 
L 553.04 268.844749 
" style="fill:none;stroke:#ffffff;stroke-linecap:round;"/>
     </g>
     <g id="text_9">
      <!-- 0.15 -->
      <g style="fill:#262626;" transform="translate(12.96 272.781546)scale(0.11 -0.11)">
       <use xlink:href="#ArialMT-48"/>
       <use x="55.615234" xlink:href="#ArialMT-46"/>
       <use x="83.398438" xlink:href="#ArialMT-49"/>
       <use x="139.013672" xlink:href="#ArialMT-53"/>
      </g>
     </g>
    </g>
    <g id="ytick_5">
     <g id="line2d_10">
      <path clip-path="url(#p0f0785637a)" d="M 43.867031 221.458685 
L 553.04 221.458685 
" style="fill:none;stroke:#ffffff;stroke-linecap:round;"/>
     </g>
     <g id="text_10">
      <!-- 0.20 -->
      <g style="fill:#262626;" transform="translate(12.96 225.395481)scale(0.11 -0.11)">
       <use xlink:href="#ArialMT-48"/>
       <use x="55.615234" xlink:href="#ArialMT-46"/>
       <use x="83.398438" xlink:href="#ArialMT-50"/>
       <use x="139.013672" xlink:href="#ArialMT-48"/>
      </g>
     </g>
    </g>
    <g id="ytick_6">
     <g id="line2d_11">
      <path clip-path="url(#p0f0785637a)" d="M 43.867031 174.07262 
L 553.04 174.07262 
" style="fill:none;stroke:#ffffff;stroke-linecap:round;"/>
     </g>
     <g id="text_11">
      <!-- 0.25 -->
      <g style="fill:#262626;" transform="translate(12.96 178.009417)scale(0.11 -0.11)">
       <use xlink:href="#ArialMT-48"/>
       <use x="55.615234" xlink:href="#ArialMT-46"/>
       <use x="83.398438" xlink:href="#ArialMT-50"/>
       <use x="139.013672" xlink:href="#ArialMT-53"/>
      </g>
     </g>
    </g>
    <g id="ytick_7">
     <g id="line2d_12">
      <path clip-path="url(#p0f0785637a)" d="M 43.867031 126.686555 
L 553.04 126.686555 
" style="fill:none;stroke:#ffffff;stroke-linecap:round;"/>
     </g>
     <g id="text_12">
      <!-- 0.30 -->
      <defs>
       <path d="M 4.203125 18.890625 
L 12.984375 20.0625 
Q 14.5 12.59375 18.140625 9.296875 
Q 21.78125 6 27 6 
Q 33.203125 6 37.46875 10.296875 
Q 41.75 14.59375 41.75 20.953125 
Q 41.75 27 37.796875 30.921875 
Q 33.84375 34.859375 27.734375 34.859375 
Q 25.25 34.859375 21.53125 33.890625 
L 22.515625 41.609375 
Q 23.390625 41.5 23.921875 41.5 
Q 29.546875 41.5 34.03125 44.421875 
Q 38.53125 47.359375 38.53125 53.46875 
Q 38.53125 58.296875 35.25 61.46875 
Q 31.984375 64.65625 26.8125 64.65625 
Q 21.6875 64.65625 18.265625 61.421875 
Q 14.84375 58.203125 13.875 51.765625 
L 5.078125 53.328125 
Q 6.6875 62.15625 12.390625 67.015625 
Q 18.109375 71.875 26.609375 71.875 
Q 32.46875 71.875 37.390625 69.359375 
Q 42.328125 66.84375 44.9375 62.5 
Q 47.5625 58.15625 47.5625 53.265625 
Q 47.5625 48.640625 45.0625 44.828125 
Q 42.578125 41.015625 37.703125 38.765625 
Q 44.046875 37.3125 47.5625 32.6875 
Q 51.078125 28.078125 51.078125 21.140625 
Q 51.078125 11.765625 44.234375 5.25 
Q 37.40625 -1.265625 26.953125 -1.265625 
Q 17.53125 -1.265625 11.296875 4.34375 
Q 5.078125 9.96875 4.203125 18.890625 
z
" id="ArialMT-51"/>
      </defs>
      <g style="fill:#262626;" transform="translate(12.96 130.623352)scale(0.11 -0.11)">
       <use xlink:href="#ArialMT-48"/>
       <use x="55.615234" xlink:href="#ArialMT-46"/>
       <use x="83.398438" xlink:href="#ArialMT-51"/>
       <use x="139.013672" xlink:href="#ArialMT-48"/>
      </g>
     </g>
    </g>
    <g id="ytick_8">
     <g id="line2d_13">
      <path clip-path="url(#p0f0785637a)" d="M 43.867031 79.300491 
L 553.04 79.300491 
" style="fill:none;stroke:#ffffff;stroke-linecap:round;"/>
     </g>
     <g id="text_13">
      <!-- 0.35 -->
      <g style="fill:#262626;" transform="translate(12.96 83.237287)scale(0.11 -0.11)">
       <use xlink:href="#ArialMT-48"/>
       <use x="55.615234" xlink:href="#ArialMT-46"/>
       <use x="83.398438" xlink:href="#ArialMT-51"/>
       <use x="139.013672" xlink:href="#ArialMT-53"/>
      </g>
     </g>
    </g>
    <g id="ytick_9">
     <g id="line2d_14">
      <path clip-path="url(#p0f0785637a)" d="M 43.867031 31.914426 
L 553.04 31.914426 
" style="fill:none;stroke:#ffffff;stroke-linecap:round;"/>
     </g>
     <g id="text_14">
      <!-- 0.40 -->
      <g style="fill:#262626;" transform="translate(12.96 35.851223)scale(0.11 -0.11)">
       <use xlink:href="#ArialMT-48"/>
       <use x="55.615234" xlink:href="#ArialMT-46"/>
       <use x="83.398438" xlink:href="#ArialMT-52"/>
       <use x="139.013672" xlink:href="#ArialMT-48"/>
      </g>
     </g>
    </g>
   </g>
   <g id="patch_3">
    <path clip-path="url(#p0f0785637a)" d="M 279.725252 411.002943 
L 279.725252 410.791036 
L 280.684417 410.89699 
L 280.684417 411.002943 
L 282.602747 410.89699 
L 282.602747 410.791036 
L 283.561913 410.791036 
L 283.561913 410.579129 
L 284.521078 410.473176 
L 284.521078 410.791036 
L 285.00066 410.791036 
L 285.00066 409.625547 
L 285.959826 409.519594 
L 285.959826 409.307687 
L 286.439408 409.307687 
L 286.439408 408.566012 
L 286.918991 408.566012 
L 286.918991 407.824337 
L 287.398573 407.824337 
L 287.398573 406.129081 
L 287.878156 406.129081 
L 287.878156 404.857638 
L 288.357739 404.857638 
L 288.357739 404.01001 
L 288.837321 404.01001 
L 288.837321 402.738568 
L 289.316904 402.738568 
L 289.316904 397.017077 
L 289.796486 397.017077 
L 289.796486 395.639681 
L 290.276069 395.639681 
L 290.276069 391.719401 
L 290.755652 391.719401 
L 290.755652 388.646748 
L 291.235234 388.646748 
L 291.235234 383.666932 
L 291.714817 383.666932 
L 291.714817 377.097813 
L 292.194399 377.097813 
L 292.194399 370.316787 
L 292.673982 370.316787 
L 292.673982 356.330921 
L 293.153565 356.330921 
L 293.153565 351.986826 
L 293.633147 351.986826 
L 293.633147 339.166449 
L 294.11273 339.166449 
L 294.11273 324.015094 
L 294.592312 324.015094 
L 294.592312 322.213884 
L 295.071895 322.213884 
L 295.071895 301.446992 
L 295.551478 301.446992 
L 295.551478 281.633681 
L 296.03106 281.633681 
L 296.03106 259.913207 
L 296.510643 259.913207 
L 296.510643 247.516644 
L 296.990225 247.516644 
L 296.990225 223.783053 
L 297.469808 223.783053 
L 297.469808 203.863789 
L 297.949391 203.863789 
L 297.949391 192.632715 
L 298.428973 192.632715 
L 298.428973 166.038379 
L 298.908556 166.038379 
L 298.908556 136.795204 
L 299.388139 136.795204 
L 299.388139 130.649899 
L 299.867721 130.649899 
L 299.867721 115.816405 
L 300.347304 115.816405 
L 300.347304 81.593414 
L 300.826886 81.593414 
L 300.826886 78.096947 
L 301.306469 78.096947 
L 301.306469 58.495544 
L 301.786052 58.495544 
L 301.786052 53.621682 
L 302.265634 53.621682 
L 302.265634 49.595447 
L 302.745217 49.595447 
L 302.745217 39.529862 
L 303.224799 39.529862 
L 303.224799 35.291721 
L 303.704382 35.291721 
L 303.704382 27.239252 
L 304.183965 27.239252 
L 304.183965 30.417858 
L 304.663547 30.417858 
L 304.663547 41.013211 
L 305.14313 41.013211 
L 305.14313 55.952659 
L 305.622712 55.952659 
L 305.622712 63.899174 
L 306.102295 63.899174 
L 306.102295 71.209968 
L 306.581878 71.209968 
L 306.581878 97.486444 
L 307.06146 97.486444 
L 307.06146 123.233152 
L 307.541043 123.233152 
L 307.541043 131.603481 
L 308.020625 131.603481 
L 308.020625 146.542929 
L 308.500208 146.542929 
L 308.500208 170.382473 
L 308.979791 170.382473 
L 308.979791 190.937458 
L 309.459373 190.937458 
L 309.459373 202.910208 
L 309.938956 202.910208 
L 309.938956 232.153382 
L 310.418538 232.153382 
L 310.418538 243.066596 
L 310.898121 243.066596 
L 310.898121 268.071629 
L 311.377704 268.071629 
L 311.377704 284.176566 
L 311.857286 284.176566 
L 311.857286 301.870806 
L 312.336869 301.870806 
L 312.336869 315.432858 
L 312.816451 315.432858 
L 312.816451 330.054445 
L 313.296034 330.054445 
L 313.296034 338.954542 
L 313.775617 338.954542 
L 313.775617 350.397523 
L 314.255199 350.397523 
L 314.255199 361.840505 
L 314.734782 361.840505 
L 314.734782 371.90609 
L 315.214364 371.90609 
L 315.214364 373.601347 
L 315.693947 373.601347 
L 315.693947 384.408607 
L 316.17353 384.408607 
L 316.17353 388.964609 
L 316.653112 388.964609 
L 316.653112 392.037261 
L 317.132695 392.037261 
L 317.132695 397.228984 
L 317.612278 397.228984 
L 317.612278 399.136148 
L 318.09186 399.136148 
L 318.09186 402.526661 
L 318.571443 402.526661 
L 318.571443 404.115964 
L 319.051025 404.115964 
L 319.051025 405.175499 
L 319.530608 405.175499 
L 319.530608 406.870756 
L 320.010191 406.870756 
L 320.010191 407.930291 
L 320.489773 407.930291 
L 320.489773 408.671966 
L 320.969356 408.671966 
L 320.969356 409.41364 
L 321.448938 409.41364 
L 321.448938 409.837454 
L 321.928521 409.837454 
L 321.928521 410.049362 
L 322.408104 410.049362 
L 322.408104 410.473176 
L 323.367269 410.473176 
L 323.367269 410.261269 
L 323.846851 410.261269 
L 323.846851 410.685083 
L 324.806017 410.791036 
L 324.806017 411.002943 
L 327.683512 410.89699 
L 327.683512 411.002943 
" style="fill:none;stroke:#4c72b0;stroke-linejoin:miter;"/>
   </g>
   <g id="patch_4">
    <path clip-path="url(#p0f0785637a)" d="M 233.312023 411.002943 
L 233.312023 410.967592 
L 246.248404 410.861537 
L 246.248404 410.790834 
L 247.685779 410.790834 
L 247.685779 410.543373 
L 250.560531 410.437318 
L 250.560531 410.401967 
L 253.435282 410.331264 
L 253.435282 409.518178 
L 256.310033 409.588881 
L 256.310033 409.235365 
L 257.747409 409.235365 
L 257.747409 408.351576 
L 259.184785 408.351576 
L 259.184785 407.962709 
L 262.059536 408.033412 
L 262.059536 405.841616 
L 263.496912 405.841616 
L 263.496912 405.346694 
L 264.934287 405.346694 
L 264.934287 402.942788 
L 266.371663 402.942788 
L 266.371663 400.326773 
L 267.809039 400.326773 
L 267.809039 399.619741 
L 269.246414 399.619741 
L 269.246414 394.493765 
L 270.68379 394.493765 
L 270.68379 394.741226 
L 272.121166 394.741226 
L 272.121166 392.514078 
L 273.558541 392.514078 
L 273.558541 387.706266 
L 274.995917 387.706266 
L 274.995917 383.570134 
L 276.433293 383.570134 
L 276.433293 378.408806 
L 277.870668 378.408806 
L 277.870668 373.459588 
L 279.308044 373.459588 
L 279.308044 366.813495 
L 280.74542 366.813495 
L 280.74542 364.692401 
L 282.182796 364.692401 
L 282.182796 356.667597 
L 283.620171 356.667597 
L 283.620171 349.385176 
L 285.057547 349.385176 
L 285.057547 342.20881 
L 286.494923 342.20881 
L 286.494923 335.739475 
L 287.932298 335.739475 
L 287.932298 331.461936 
L 289.369674 331.461936 
L 289.369674 322.235179 
L 290.80705 322.235179 
L 290.80705 315.306274 
L 292.244425 315.306274 
L 292.244425 310.816626 
L 293.681801 310.816626 
L 293.681801 304.771509 
L 295.119177 304.771509 
L 295.119177 300.918189 
L 296.556552 300.918189 
L 296.556552 299.539478 
L 297.993928 299.539478 
L 297.993928 288.615847 
L 299.431304 288.615847 
L 299.431304 285.222097 
L 300.868679 285.222097 
L 300.868679 285.540261 
L 302.306055 285.540261 
L 302.306055 283.70198 
L 303.743431 283.70198 
L 303.743431 285.646316 
L 305.180806 285.646316 
L 305.180806 284.16155 
L 306.618182 284.16155 
L 306.618182 291.090456 
L 308.055558 291.090456 
L 308.055558 289.14612 
L 309.492933 289.14612 
L 309.492933 296.605299 
L 310.930309 296.605299 
L 310.930309 299.751588 
L 312.367685 299.751588 
L 312.367685 302.402955 
L 313.80506 302.402955 
L 313.80506 310.00354 
L 315.242436 310.00354 
L 315.242436 318.346508 
L 316.679812 318.346508 
L 316.679812 322.694749 
L 318.117187 322.694749 
L 318.117187 330.153928 
L 319.554563 330.153928 
L 319.554563 336.906076 
L 320.991939 336.906076 
L 320.991939 346.309591 
L 322.429314 346.309591 
L 322.429314 347.65295 
L 323.86669 347.65295 
L 323.86669 356.915058 
L 325.304066 356.915058 
L 325.304066 363.313691 
L 326.741441 363.313691 
L 326.741441 367.414471 
L 328.178817 367.414471 
L 328.178817 374.838299 
L 329.616193 374.838299 
L 329.616193 380.353142 
L 331.053569 380.353142 
L 331.053569 384.206462 
L 332.490944 384.206462 
L 332.490944 388.484 
L 333.92832 388.484 
L 333.92832 390.463688 
L 335.365696 390.463688 
L 335.365696 393.397867 
L 336.803071 393.397867 
L 336.803071 397.003726 
L 338.240447 397.003726 
L 338.240447 400.079312 
L 339.677823 400.079312 
L 339.677823 401.493374 
L 341.115198 401.493374 
L 341.115198 403.190249 
L 342.552574 403.190249 
L 342.552574 404.639663 
L 343.98995 404.639663 
L 343.98995 406.230483 
L 345.427325 406.230483 
L 345.427325 406.477944 
L 346.864701 406.477944 
L 346.864701 407.892006 
L 348.302077 407.892006 
L 348.302077 408.316225 
L 349.739452 408.316225 
L 349.739452 409.482826 
L 351.176828 409.482826 
L 351.176828 409.977748 
L 352.614204 409.977748 
L 352.614204 410.154506 
L 354.051579 410.154506 
L 354.051579 410.437318 
L 355.488955 410.437318 
L 355.488955 410.225209 
L 356.926331 410.225209 
L 356.926331 410.790834 
L 362.675833 410.755482 
L 362.675833 410.93224 
L 377.04959 410.967592 
L 377.04959 411.002943 
" style="fill:none;stroke:#dd8452;stroke-linejoin:miter;"/>
   </g>
   <g id="patch_5">
    <path clip-path="url(#p0f0785637a)" d="M 67.011257 411.002943 
L 67.011257 410.980988 
L 122.557399 410.871212 
L 122.557399 410.827302 
L 136.443935 410.750459 
L 136.443935 410.673616 
L 145.701625 410.607751 
L 145.701625 410.377222 
L 150.33047 410.377222 
L 150.33047 410.168648 
L 154.959315 410.168648 
L 154.959315 409.916164 
L 159.588161 409.916164 
L 159.588161 409.685635 
L 168.845851 409.70759 
L 168.845851 409.25751 
L 173.474696 409.25751 
L 173.474696 408.906227 
L 178.103541 408.906227 
L 178.103541 408.423214 
L 182.732386 408.423214 
L 182.732386 407.863358 
L 187.361232 407.863358 
L 187.361232 406.875377 
L 191.990077 406.875377 
L 191.990077 406.403342 
L 196.618922 406.403342 
L 196.618922 405.470248 
L 201.247767 405.470248 
L 201.247767 404.306626 
L 205.876612 404.306626 
L 205.876612 403.132026 
L 210.505457 403.132026 
L 210.505457 402.319686 
L 215.134303 402.319686 
L 215.134303 401.375615 
L 219.763148 401.375615 
L 219.763148 399.180101 
L 224.391993 399.180101 
L 224.391993 397.160228 
L 229.020838 397.160228 
L 229.020838 395.359906 
L 233.649683 395.359906 
L 233.649683 393.965755 
L 238.278528 393.965755 
L 238.278528 392.472806 
L 242.907374 392.472806 
L 242.907374 390.705417 
L 247.536219 390.705417 
L 247.536219 388.312307 
L 252.165064 388.312307 
L 252.165064 385.513026 
L 256.793909 385.513026 
L 256.793909 384.162785 
L 261.422754 384.162785 
L 261.422754 382.15389 
L 266.051599 382.15389 
L 266.051599 379.563184 
L 270.680445 379.563184 
L 270.680445 377.839705 
L 279.938135 377.77384 
L 279.938135 375.084335 
L 284.56698 375.084335 
L 284.56698 374.579367 
L 289.195825 374.579367 
L 289.195825 374.228085 
L 293.82467 374.228085 
L 293.82467 373.756049 
L 298.453516 373.756049 
L 298.453516 374.689143 
L 303.082361 374.689143 
L 303.082361 374.29395 
L 307.711206 374.29395 
L 307.711206 373.305969 
L 312.340051 373.305969 
L 312.340051 373.745072 
L 316.968896 373.745072 
L 316.968896 375.281931 
L 321.597741 375.281931 
L 321.597741 375.644191 
L 326.226587 375.644191 
L 326.226587 376.972477 
L 330.855432 376.972477 
L 330.855432 378.355651 
L 335.484277 378.355651 
L 335.484277 379.585139 
L 340.113122 379.585139 
L 340.113122 382.340509 
L 344.741967 382.340509 
L 344.741967 383.602929 
L 349.370812 383.602929 
L 349.370812 386.347322 
L 353.999658 386.347322 
L 353.999658 387.565832 
L 358.628503 387.565832 
L 358.628503 389.662548 
L 363.257348 389.662548 
L 363.257348 390.815193 
L 367.886193 390.815193 
L 367.886193 394.03162 
L 372.515038 394.03162 
L 372.515038 395.590435 
L 377.143884 395.590435 
L 377.143884 397.083385 
L 381.772729 397.083385 
L 381.772729 398.543402 
L 386.401574 398.543402 
L 386.401574 400.486431 
L 391.030419 400.486431 
L 391.030419 401.298772 
L 395.659264 401.298772 
L 395.659264 403.088116 
L 400.288109 403.088116 
L 400.288109 404.076097 
L 404.916955 404.076097 
L 404.916955 404.932347 
L 409.5458 404.932347 
L 409.5458 406.18379 
L 414.174645 406.18379 
L 414.174645 406.919287 
L 418.80349 406.919287 
L 418.80349 407.687717 
L 423.432335 407.687717 
L 423.432335 408.324416 
L 428.06118 408.324416 
L 428.06118 408.554945 
L 432.690026 408.554945 
L 432.690026 409.30142 
L 441.947716 409.378263 
L 441.947716 409.795411 
L 446.576561 409.795411 
L 446.576561 410.02594 
L 451.205406 410.02594 
L 451.205406 410.212558 
L 455.834251 410.212558 
L 455.834251 410.43211 
L 465.091942 410.497975 
L 465.091942 410.596773 
L 469.720787 410.596773 
L 469.720787 410.750459 
L 483.607322 410.827302 
L 483.607322 410.893168 
L 529.895774 410.991966 
L 529.895774 411.002943 
" style="fill:none;stroke:#55a868;stroke-linejoin:miter;"/>
   </g>
   <g id="patch_6">
    <path d="M 43.867031 420.480156 
L 43.867031 12.96 
" style="fill:none;stroke:#ffffff;stroke-linecap:square;stroke-linejoin:miter;stroke-width:1.25;"/>
   </g>
   <g id="patch_7">
    <path d="M 553.04 420.480156 
L 553.04 12.96 
" style="fill:none;stroke:#ffffff;stroke-linecap:square;stroke-linejoin:miter;stroke-width:1.25;"/>
   </g>
   <g id="patch_8">
    <path d="M 43.867031 420.480156 
L 553.04 420.480156 
" style="fill:none;stroke:#ffffff;stroke-linecap:square;stroke-linejoin:miter;stroke-width:1.25;"/>
   </g>
   <g id="patch_9">
    <path d="M 43.867031 12.96 
L 553.04 12.96 
" style="fill:none;stroke:#ffffff;stroke-linecap:square;stroke-linejoin:miter;stroke-width:1.25;"/>
   </g>
   <g id="legend_1">
    <g id="patch_10">
     <path d="M 470.696406 68.439531 
L 545.34 68.439531 
Q 547.54 68.439531 547.54 66.239531 
L 547.54 20.66 
Q 547.54 18.46 545.34 18.46 
L 470.696406 18.46 
Q 468.496406 18.46 468.496406 20.66 
L 468.496406 66.239531 
Q 468.496406 68.439531 470.696406 68.439531 
z
" style="fill:#eaeaf2;opacity:0.8;stroke:#cccccc;stroke-linejoin:miter;"/>
    </g>
    <g id="patch_11">
     <path d="M 472.896406 30.733594 
L 494.896406 30.733594 
L 494.896406 23.033594 
L 472.896406 23.033594 
z
" style="fill:none;stroke:#4c72b0;stroke-linejoin:miter;"/>
    </g>
    <g id="text_15">
     <!-- std = 1 -->
     <defs>
      <path d="M 3.078125 15.484375 
L 11.765625 16.84375 
Q 12.5 11.625 15.84375 8.84375 
Q 19.1875 6.0625 25.203125 6.0625 
Q 31.25 6.0625 34.171875 8.515625 
Q 37.109375 10.984375 37.109375 14.3125 
Q 37.109375 17.28125 34.515625 19 
Q 32.71875 20.171875 25.53125 21.96875 
Q 15.875 24.421875 12.140625 26.203125 
Q 8.40625 27.984375 6.46875 31.125 
Q 4.546875 34.28125 4.546875 38.09375 
Q 4.546875 41.546875 6.125 44.5 
Q 7.71875 47.46875 10.453125 49.421875 
Q 12.5 50.921875 16.03125 51.96875 
Q 19.578125 53.03125 23.640625 53.03125 
Q 29.734375 53.03125 34.34375 51.265625 
Q 38.96875 49.515625 41.15625 46.5 
Q 43.359375 43.5 44.1875 38.484375 
L 35.59375 37.3125 
Q 35.015625 41.3125 32.203125 43.546875 
Q 29.390625 45.796875 24.265625 45.796875 
Q 18.21875 45.796875 15.625 43.796875 
Q 13.03125 41.796875 13.03125 39.109375 
Q 13.03125 37.40625 14.109375 36.03125 
Q 15.1875 34.625 17.484375 33.6875 
Q 18.796875 33.203125 25.25 31.453125 
Q 34.578125 28.953125 38.25 27.359375 
Q 41.9375 25.78125 44.03125 22.75 
Q 46.140625 19.734375 46.140625 15.234375 
Q 46.140625 10.84375 43.578125 6.953125 
Q 41.015625 3.078125 36.171875 0.953125 
Q 31.34375 -1.171875 25.25 -1.171875 
Q 15.140625 -1.171875 9.84375 3.03125 
Q 4.546875 7.234375 3.078125 15.484375 
z
" id="ArialMT-115"/>
      <path d="M 25.78125 7.859375 
L 27.046875 0.09375 
Q 23.34375 -0.6875 20.40625 -0.6875 
Q 15.625 -0.6875 12.984375 0.828125 
Q 10.359375 2.34375 9.28125 4.8125 
Q 8.203125 7.28125 8.203125 15.1875 
L 8.203125 45.015625 
L 1.765625 45.015625 
L 1.765625 51.859375 
L 8.203125 51.859375 
L 8.203125 64.703125 
L 16.9375 69.96875 
L 16.9375 51.859375 
L 25.78125 51.859375 
L 25.78125 45.015625 
L 16.9375 45.015625 
L 16.9375 14.703125 
Q 16.9375 10.9375 17.40625 9.859375 
Q 17.875 8.796875 18.921875 8.15625 
Q 19.96875 7.515625 21.921875 7.515625 
Q 23.390625 7.515625 25.78125 7.859375 
z
" id="ArialMT-116"/>
      <path d="M 40.234375 0 
L 40.234375 6.546875 
Q 35.296875 -1.171875 25.734375 -1.171875 
Q 19.53125 -1.171875 14.328125 2.25 
Q 9.125 5.671875 6.265625 11.796875 
Q 3.421875 17.921875 3.421875 25.875 
Q 3.421875 33.640625 6 39.96875 
Q 8.59375 46.296875 13.765625 49.65625 
Q 18.953125 53.03125 25.34375 53.03125 
Q 30.03125 53.03125 33.6875 51.046875 
Q 37.359375 49.078125 39.65625 45.90625 
L 39.65625 71.578125 
L 48.390625 71.578125 
L 48.390625 0 
z
M 12.453125 25.875 
Q 12.453125 15.921875 16.640625 10.984375 
Q 20.84375 6.0625 26.5625 6.0625 
Q 32.328125 6.0625 36.34375 10.765625 
Q 40.375 15.484375 40.375 25.140625 
Q 40.375 35.796875 36.265625 40.765625 
Q 32.171875 45.75 26.171875 45.75 
Q 20.3125 45.75 16.375 40.96875 
Q 12.453125 36.1875 12.453125 25.875 
z
" id="ArialMT-100"/>
      <path id="ArialMT-32"/>
      <path d="M 52.828125 42.09375 
L 5.5625 42.09375 
L 5.5625 50.296875 
L 52.828125 50.296875 
z
M 52.828125 20.359375 
L 5.5625 20.359375 
L 5.5625 28.5625 
L 52.828125 28.5625 
z
" id="ArialMT-61"/>
     </defs>
     <g style="fill:#262626;" transform="translate(503.696406 30.733594)scale(0.11 -0.11)">
      <use xlink:href="#ArialMT-115"/>
      <use x="50" xlink:href="#ArialMT-116"/>
      <use x="77.783203" xlink:href="#ArialMT-100"/>
      <use x="133.398438" xlink:href="#ArialMT-32"/>
      <use x="161.181641" xlink:href="#ArialMT-61"/>
      <use x="219.580078" xlink:href="#ArialMT-32"/>
      <use x="247.363281" xlink:href="#ArialMT-49"/>
     </g>
    </g>
    <g id="patch_12">
     <path d="M 472.896406 46.293437 
L 494.896406 46.293437 
L 494.896406 38.593437 
L 472.896406 38.593437 
z
" style="fill:none;stroke:#dd8452;stroke-linejoin:miter;"/>
    </g>
    <g id="text_16">
     <!-- std = 3 -->
     <g style="fill:#262626;" transform="translate(503.696406 46.293437)scale(0.11 -0.11)">
      <use xlink:href="#ArialMT-115"/>
      <use x="50" xlink:href="#ArialMT-116"/>
      <use x="77.783203" xlink:href="#ArialMT-100"/>
      <use x="133.398438" xlink:href="#ArialMT-32"/>
      <use x="161.181641" xlink:href="#ArialMT-61"/>
      <use x="219.580078" xlink:href="#ArialMT-32"/>
      <use x="247.363281" xlink:href="#ArialMT-51"/>
     </g>
    </g>
    <g id="patch_13">
     <path d="M 472.896406 61.853281 
L 494.896406 61.853281 
L 494.896406 54.153281 
L 472.896406 54.153281 
z
" style="fill:none;stroke:#55a868;stroke-linejoin:miter;"/>
    </g>
    <g id="text_17">
     <!-- std = 10 -->
     <g style="fill:#262626;" transform="translate(503.696406 61.853281)scale(0.11 -0.11)">
      <use xlink:href="#ArialMT-115"/>
      <use x="50" xlink:href="#ArialMT-116"/>
      <use x="77.783203" xlink:href="#ArialMT-100"/>
      <use x="133.398438" xlink:href="#ArialMT-32"/>
      <use x="161.181641" xlink:href="#ArialMT-61"/>
      <use x="219.580078" xlink:href="#ArialMT-32"/>
      <use x="247.363281" xlink:href="#ArialMT-49"/>
      <use x="302.978516" xlink:href="#ArialMT-48"/>
     </g>
    </g>
   </g>
  </g>
 </g>
 <defs>
  <clipPath id="p0f0785637a">
   <rect height="407.520156" width="509.172969" x="43.867031" y="12.96"/>
  </clipPath>
 </defs>
</svg>
